<svg width="544" height="473" viewBox="0 0 544 473" fill="none" xmlns="http://www.w3.org/2000/svg">
<path d="M395.13 294.731C424.756 287.651 451.539 274.735 472.892 257.231C494.244 239.727 509.445 218.226 517.026 194.806C524.607 171.386 524.312 146.837 516.168 123.532C508.025 100.227 492.309 78.9519 470.539 61.7632C448.769 44.5744 421.68 32.0523 391.889 25.4065C362.098 18.7607 330.612 18.2158 300.471 23.8244C270.331 29.433 242.556 41.0056 219.829 57.4243C197.101 73.843 180.189 94.5529 170.727 117.554" stroke="#32794F" stroke-width="2"/>
<path d="M306.373 326.702C296.489 355.145 280.961 380.314 261.29 399.78C241.619 419.245 218.47 432.348 194.079 437.823C169.688 443.299 144.879 440.961 122.048 431.036C99.2175 421.112 79.1372 403.935 63.7468 381.166C48.3563 358.398 38.1759 330.806 34.1889 301.056C30.2018 271.306 32.5429 240.404 40.986 211.335C49.429 182.266 63.6888 156.011 82.3877 135.108C101.087 114.205 123.593 99.3597 147.732 92.0058" stroke="#32794F" stroke-width="2"/>
<path d="M415.628 307.756C445.254 300.676 472.037 287.76 493.39 270.255C514.743 252.751 529.944 231.251 537.524 207.83C545.105 184.41 544.81 159.862 536.667 136.556C528.523 113.251 512.808 91.9764 491.037 74.7876C469.267 57.5989 442.178 45.0768 412.387 38.431C382.596 31.7852 351.11 31.2403 320.97 36.8489C290.829 42.4575 263.054 54.0301 240.327 70.4488C217.599 86.8675 200.688 107.577 191.226 130.578" stroke="#32794F" stroke-opacity="0.7"/>
<path d="M317.636 348.176C307.751 376.619 292.224 401.788 272.553 421.254C252.882 440.719 229.733 453.822 205.342 459.297C180.95 464.773 156.141 462.435 133.311 452.51C110.48 442.586 90.3999 425.409 75.0095 402.64C59.619 379.871 49.4386 352.28 45.4515 322.53C41.4645 292.78 43.8056 261.878 52.2487 232.809C60.6917 203.74 74.9515 177.485 93.6504 156.582C112.349 135.679 134.856 120.834 158.995 113.48" stroke="#32794F" stroke-opacity="0.7"/>
<path d="M420.498 274.388C432.483 266.098 441.174 253.822 445.73 238.745C450.287 223.668 450.555 206.299 446.509 188.317C442.464 170.334 434.241 152.346 422.634 136.089C411.028 119.832 396.431 105.857 380.254 95.5119C364.076 85.1672 346.864 78.8032 330.281 77.0345C313.698 75.2658 298.303 78.1522 285.585 85.415" stroke="#32794F" stroke-opacity="0.2"/>
<path d="M283.374 350.061C273.881 361.124 260.653 368.623 244.971 371.833C229.288 375.044 211.679 373.857 193.846 368.388C176.013 362.918 158.558 353.351 143.167 340.611C127.776 327.87 114.969 312.387 105.984 295.656C96.9983 278.925 92.1378 261.513 91.8719 245.1C91.6059 228.687 95.9434 213.83 104.465 201.962" stroke="#32794F" stroke-opacity="0.2"/>
<path d="M396.305 320.159C421.198 311.96 443.701 297.004 461.642 276.734C479.584 256.463 492.356 231.565 498.725 204.444C505.095 177.323 504.847 148.896 498.005 121.908C491.163 94.9202 477.958 70.284 459.666 50.3791C441.374 30.4743 418.613 15.9736 393.582 8.27766C368.551 0.581737 342.095 -0.0492764 316.771 6.44557C291.446 12.9404 268.109 26.3416 249.012 45.3547C229.916 64.3677 215.707 88.3501 207.756 114.985" stroke="#32794F" stroke-opacity="0.5" stroke-width="4"/>
<path d="M331.933 330.195C321.345 353.913 304.135 374.725 281.966 390.621C259.796 406.517 233.416 416.959 205.374 420.94C177.332 424.92 148.575 422.303 121.882 413.343C95.1885 404.382 71.4606 389.38 52.9902 369.787C34.5198 350.193 21.931 326.669 16.44 301.488C10.9489 276.307 12.7412 250.32 21.6435 226.036C30.5459 201.752 46.2576 179.992 67.2608 162.859C88.2641 145.726 113.849 133.798 141.545 128.228" stroke="#32794F" stroke-opacity="0.5" stroke-width="4"/>
</svg>
