<svg width="928" height="188" viewBox="0 0 928 188" fill="none" xmlns="http://www.w3.org/2000/svg">
<rect x="-22" width="540" height="188" rx="20" fill="#1A3E1F"/>
<path d="M232.641 63H227.875V40.1562H240.969V44.125H232.641V50.0156H240.391V53.9688H232.641V63ZM260.938 54.2344C260.938 55.6927 260.74 56.9844 260.344 58.1094C259.958 59.2344 259.391 60.1875 258.641 60.9688C257.901 61.7396 257.005 62.3229 255.953 62.7188C254.911 63.1146 253.734 63.3125 252.422 63.3125C251.193 63.3125 250.062 63.1146 249.031 62.7188C248.01 62.3229 247.12 61.7396 246.359 60.9688C245.609 60.1875 245.026 59.2344 244.609 58.1094C244.203 56.9844 244 55.6927 244 54.2344C244 52.2969 244.344 50.6562 245.031 49.3125C245.719 47.9688 246.698 46.9479 247.969 46.25C249.24 45.5521 250.755 45.2031 252.516 45.2031C254.151 45.2031 255.599 45.5521 256.859 46.25C258.13 46.9479 259.125 47.9688 259.844 49.3125C260.573 50.6562 260.938 52.2969 260.938 54.2344ZM248.859 54.2344C248.859 55.3802 248.984 56.3438 249.234 57.125C249.484 57.9062 249.875 58.4948 250.406 58.8906C250.938 59.2865 251.63 59.4844 252.484 59.4844C253.328 59.4844 254.01 59.2865 254.531 58.8906C255.062 58.4948 255.448 57.9062 255.688 57.125C255.938 56.3438 256.062 55.3802 256.062 54.2344C256.062 53.0781 255.938 52.1198 255.688 51.3594C255.448 50.5885 255.062 50.0104 254.531 49.625C254 49.2396 253.307 49.0469 252.453 49.0469C251.193 49.0469 250.276 49.4792 249.703 50.3438C249.141 51.2083 248.859 52.5052 248.859 54.2344ZM280.906 45.5312V63H277.25L276.609 60.7656H276.359C275.984 61.3594 275.516 61.8438 274.953 62.2188C274.391 62.5938 273.771 62.8698 273.094 63.0469C272.417 63.224 271.714 63.3125 270.984 63.3125C269.734 63.3125 268.646 63.0938 267.719 62.6562C266.792 62.2083 266.068 61.5156 265.547 60.5781C265.036 59.6406 264.781 58.4219 264.781 56.9219V45.5312H269.547V55.7344C269.547 56.9844 269.771 57.9271 270.219 58.5625C270.667 59.1979 271.38 59.5156 272.359 59.5156C273.328 59.5156 274.089 59.2969 274.641 58.8594C275.193 58.4115 275.578 57.7604 275.797 56.9062C276.026 56.0417 276.141 54.9896 276.141 53.75V45.5312H280.906ZM295.828 45.2031C297.693 45.2031 299.193 45.7135 300.328 46.7344C301.464 47.7448 302.031 49.3698 302.031 51.6094V63H297.266V52.7969C297.266 51.5469 297.036 50.6042 296.578 49.9688C296.13 49.3333 295.422 49.0156 294.453 49.0156C292.995 49.0156 292 49.5104 291.469 50.5C290.938 51.4896 290.672 52.9167 290.672 54.7812V63H285.906V45.5312H289.547L290.188 47.7656H290.453C290.828 47.1615 291.292 46.6719 291.844 46.2969C292.406 45.9219 293.026 45.6458 293.703 45.4688C294.391 45.2917 295.099 45.2031 295.828 45.2031ZM312.469 63.3125C310.521 63.3125 308.932 62.5521 307.703 61.0312C306.484 59.5 305.875 57.2552 305.875 54.2969C305.875 51.3073 306.495 49.0469 307.734 47.5156C308.974 45.974 310.594 45.2031 312.594 45.2031C313.427 45.2031 314.161 45.3177 314.797 45.5469C315.432 45.776 315.979 46.0833 316.438 46.4688C316.906 46.8542 317.302 47.2865 317.625 47.7656H317.781C317.719 47.4323 317.641 46.9427 317.547 46.2969C317.464 45.6406 317.422 44.9688 317.422 44.2812V38.6875H322.203V63H318.547L317.625 60.7344H317.422C317.12 61.2135 316.74 61.651 316.281 62.0469C315.833 62.4323 315.297 62.7396 314.672 62.9688C314.047 63.1979 313.312 63.3125 312.469 63.3125ZM314.141 59.5156C315.443 59.5156 316.359 59.1302 316.891 58.3594C317.432 57.5781 317.719 56.4062 317.75 54.8438V54.3281C317.75 52.6302 317.49 51.3333 316.969 50.4375C316.448 49.5312 315.479 49.0781 314.062 49.0781C313.01 49.0781 312.188 49.5312 311.594 50.4375C311 51.3438 310.703 52.651 310.703 54.3594C310.703 56.0677 311 57.3542 311.594 58.2188C312.198 59.0833 313.047 59.5156 314.141 59.5156ZM334.391 45.2031C336.005 45.2031 337.396 45.5156 338.562 46.1406C339.729 46.7552 340.63 47.651 341.266 48.8281C341.901 50.0052 342.219 51.4427 342.219 53.1406V55.4531H330.953C331.005 56.7969 331.406 57.8542 332.156 58.625C332.917 59.3854 333.969 59.7656 335.312 59.7656C336.427 59.7656 337.448 59.651 338.375 59.4219C339.302 59.1927 340.255 58.849 341.234 58.3906V62.0781C340.37 62.5052 339.464 62.8177 338.516 63.0156C337.578 63.2135 336.438 63.3125 335.094 63.3125C333.344 63.3125 331.792 62.9896 330.438 62.3438C329.094 61.6979 328.036 60.7135 327.266 59.3906C326.505 58.0677 326.125 56.401 326.125 54.3906C326.125 52.349 326.469 50.651 327.156 49.2969C327.854 47.9323 328.823 46.9115 330.062 46.2344C331.302 45.5469 332.745 45.2031 334.391 45.2031ZM334.422 48.5938C333.495 48.5938 332.724 48.8906 332.109 49.4844C331.505 50.0781 331.156 51.0104 331.062 52.2812H337.75C337.74 51.5729 337.609 50.9427 337.359 50.3906C337.12 49.8385 336.755 49.401 336.266 49.0781C335.786 48.7552 335.172 48.5938 334.422 48.5938ZM355.844 45.2031C356.083 45.2031 356.359 45.2188 356.672 45.25C356.995 45.2708 357.255 45.3021 357.453 45.3438L357.094 49.8125C356.938 49.7604 356.714 49.724 356.422 49.7031C356.141 49.6719 355.896 49.6562 355.688 49.6562C355.073 49.6562 354.474 49.7344 353.891 49.8906C353.318 50.0469 352.802 50.3021 352.344 50.6562C351.885 51 351.521 51.4583 351.25 52.0312C350.99 52.5938 350.859 53.2865 350.859 54.1094V63H346.094V45.5312H349.703L350.406 48.4688H350.641C350.984 47.875 351.411 47.3333 351.922 46.8438C352.443 46.3438 353.031 45.9479 353.688 45.6562C354.354 45.3542 355.073 45.2031 355.844 45.2031ZM365.062 59.2812L365.297 59.6406C365.109 60.3906 364.865 61.1979 364.562 62.0625C364.271 62.9271 363.948 63.7917 363.594 64.6562C363.25 65.5208 362.901 66.3438 362.547 67.125H359.109C359.318 66.2812 359.521 65.3958 359.719 64.4688C359.917 63.5417 360.099 62.6302 360.266 61.7344C360.443 60.8385 360.583 60.0208 360.688 59.2812H365.062ZM387.25 63H382.406V44.1875H376.203V40.1562H393.453V44.1875H387.25V63ZM403.75 45.1719C406.094 45.1719 407.891 45.6823 409.141 46.7031C410.391 47.724 411.016 49.276 411.016 51.3594V63H407.688L406.766 60.625H406.641C406.141 61.25 405.63 61.7604 405.109 62.1562C404.589 62.5521 403.99 62.8438 403.312 63.0312C402.635 63.2188 401.812 63.3125 400.844 63.3125C399.812 63.3125 398.885 63.1146 398.062 62.7188C397.25 62.3229 396.609 61.7188 396.141 60.9062C395.672 60.0833 395.438 59.0417 395.438 57.7812C395.438 55.9271 396.089 54.5625 397.391 53.6875C398.693 52.8021 400.646 52.3125 403.25 52.2188L406.281 52.125V51.3594C406.281 50.4427 406.042 49.7708 405.562 49.3438C405.083 48.9167 404.417 48.7031 403.562 48.7031C402.719 48.7031 401.891 48.8229 401.078 49.0625C400.266 49.3021 399.453 49.6042 398.641 49.9688L397.062 46.75C397.99 46.2604 399.026 45.875 400.172 45.5938C401.328 45.3125 402.521 45.1719 403.75 45.1719ZM406.281 54.9062L404.438 54.9688C402.896 55.0104 401.823 55.2865 401.219 55.7969C400.625 56.3073 400.328 56.9792 400.328 57.8125C400.328 58.5417 400.542 59.0625 400.969 59.375C401.396 59.6771 401.953 59.8281 402.641 59.8281C403.661 59.8281 404.521 59.526 405.219 58.9219C405.927 58.3177 406.281 57.4583 406.281 56.3438V54.9062ZM425.688 45.2031C425.927 45.2031 426.203 45.2188 426.516 45.25C426.839 45.2708 427.099 45.3021 427.297 45.3438L426.938 49.8125C426.781 49.7604 426.557 49.724 426.266 49.7031C425.984 49.6719 425.74 49.6562 425.531 49.6562C424.917 49.6562 424.318 49.7344 423.734 49.8906C423.161 50.0469 422.646 50.3021 422.188 50.6562C421.729 51 421.365 51.4583 421.094 52.0312C420.833 52.5938 420.703 53.2865 420.703 54.1094V63H415.938V45.5312H419.547L420.25 48.4688H420.484C420.828 47.875 421.255 47.3333 421.766 46.8438C422.286 46.3438 422.875 45.9479 423.531 45.6562C424.198 45.3542 424.917 45.2031 425.688 45.2031ZM437.625 45.1719C439.969 45.1719 441.766 45.6823 443.016 46.7031C444.266 47.724 444.891 49.276 444.891 51.3594V63H441.562L440.641 60.625H440.516C440.016 61.25 439.505 61.7604 438.984 62.1562C438.464 62.5521 437.865 62.8438 437.188 63.0312C436.51 63.2188 435.688 63.3125 434.719 63.3125C433.688 63.3125 432.76 63.1146 431.938 62.7188C431.125 62.3229 430.484 61.7188 430.016 60.9062C429.547 60.0833 429.312 59.0417 429.312 57.7812C429.312 55.9271 429.964 54.5625 431.266 53.6875C432.568 52.8021 434.521 52.3125 437.125 52.2188L440.156 52.125V51.3594C440.156 50.4427 439.917 49.7708 439.438 49.3438C438.958 48.9167 438.292 48.7031 437.438 48.7031C436.594 48.7031 435.766 48.8229 434.953 49.0625C434.141 49.3021 433.328 49.6042 432.516 49.9688L430.938 46.75C431.865 46.2604 432.901 45.875 434.047 45.5938C435.203 45.3125 436.396 45.1719 437.625 45.1719ZM440.156 54.9062L438.312 54.9688C436.771 55.0104 435.698 55.2865 435.094 55.7969C434.5 56.3073 434.203 56.9792 434.203 57.8125C434.203 58.5417 434.417 59.0625 434.844 59.375C435.271 59.6771 435.828 59.8281 436.516 59.8281C437.536 59.8281 438.396 59.526 439.094 58.9219C439.802 58.3177 440.156 57.4583 440.156 56.3438V54.9062ZM477.219 63H472.391V53.1406H463.344V63H458.5V40.1562H463.344V49.1094H472.391V40.1562H477.219V63ZM489.828 45.2031C491.443 45.2031 492.833 45.5156 494 46.1406C495.167 46.7552 496.068 47.651 496.703 48.8281C497.339 50.0052 497.656 51.4427 497.656 53.1406V55.4531H486.391C486.443 56.7969 486.844 57.8542 487.594 58.625C488.354 59.3854 489.406 59.7656 490.75 59.7656C491.865 59.7656 492.885 59.651 493.812 59.4219C494.74 59.1927 495.693 58.849 496.672 58.3906V62.0781C495.807 62.5052 494.901 62.8177 493.953 63.0156C493.016 63.2135 491.875 63.3125 490.531 63.3125C488.781 63.3125 487.229 62.9896 485.875 62.3438C484.531 61.6979 483.474 60.7135 482.703 59.3906C481.943 58.0677 481.562 56.401 481.562 54.3906C481.562 52.349 481.906 50.651 482.594 49.2969C483.292 47.9323 484.26 46.9115 485.5 46.2344C486.74 45.5469 488.182 45.2031 489.828 45.2031ZM489.859 48.5938C488.932 48.5938 488.161 48.8906 487.547 49.4844C486.943 50.0781 486.594 51.0104 486.5 52.2812H493.188C493.177 51.5729 493.047 50.9427 492.797 50.3906C492.557 49.8385 492.193 49.401 491.703 49.0781C491.224 48.7552 490.609 48.5938 489.859 48.5938ZM508.688 45.1719C511.031 45.1719 512.828 45.6823 514.078 46.7031C515.328 47.724 515.953 49.276 515.953 51.3594V63H512.625L511.703 60.625H511.578C511.078 61.25 510.568 61.7604 510.047 62.1562C509.526 62.5521 508.927 62.8438 508.25 63.0312C507.573 63.2188 506.75 63.3125 505.781 63.3125C504.75 63.3125 503.823 63.1146 503 62.7188C502.188 62.3229 501.547 61.7188 501.078 60.9062C500.609 60.0833 500.375 59.0417 500.375 57.7812C500.375 55.9271 501.026 54.5625 502.328 53.6875C503.63 52.8021 505.583 52.3125 508.188 52.2188L511.219 52.125V51.3594C511.219 50.4427 510.979 49.7708 510.5 49.3438C510.021 48.9167 509.354 48.7031 508.5 48.7031C507.656 48.7031 506.828 48.8229 506.016 49.0625C505.203 49.3021 504.391 49.6042 503.578 49.9688L502 46.75C502.927 46.2604 503.964 45.875 505.109 45.5938C506.266 45.3125 507.458 45.1719 508.688 45.1719ZM511.219 54.9062L509.375 54.9688C507.833 55.0104 506.76 55.2865 506.156 55.7969C505.562 56.3073 505.266 56.9792 505.266 57.8125C505.266 58.5417 505.479 59.0625 505.906 59.375C506.333 59.6771 506.891 59.8281 507.578 59.8281C508.599 59.8281 509.458 59.526 510.156 58.9219C510.865 58.3177 511.219 57.4583 511.219 56.3438V54.9062Z" fill="white"/>
<path d="M525.641 63H520.875V38.6875H525.641V63ZM538.016 59.5156C538.536 59.5156 539.042 59.4635 539.531 59.3594C540.031 59.2552 540.526 59.125 541.016 58.9688V62.5156C540.505 62.7448 539.87 62.9323 539.109 63.0781C538.359 63.2344 537.536 63.3125 536.641 63.3125C535.599 63.3125 534.661 63.1458 533.828 62.8125C533.005 62.4688 532.354 61.8802 531.875 61.0469C531.406 60.2031 531.172 59.0312 531.172 57.5312V49.1094H528.891V47.0938L531.516 45.5L532.891 41.8125H535.938V45.5312H540.828V49.1094H535.938V57.5312C535.938 58.1979 536.125 58.6979 536.5 59.0312C536.885 59.3542 537.391 59.5156 538.016 59.5156ZM549.328 38.6875V43.6406C549.328 44.5052 549.297 45.3281 549.234 46.1094C549.182 46.8906 549.141 47.4427 549.109 47.7656H549.359C549.734 47.1615 550.177 46.6719 550.688 46.2969C551.208 45.9219 551.781 45.6458 552.406 45.4688C553.031 45.2917 553.703 45.2031 554.422 45.2031C555.682 45.2031 556.781 45.4271 557.719 45.875C558.656 46.3125 559.385 47.0052 559.906 47.9531C560.427 48.8906 560.688 50.1094 560.688 51.6094V63H555.922V52.7969C555.922 51.5469 555.693 50.6042 555.234 49.9688C554.776 49.3333 554.068 49.0156 553.109 49.0156C552.151 49.0156 551.396 49.2396 550.844 49.6875C550.292 50.125 549.901 50.776 549.672 51.6406C549.443 52.4948 549.328 53.5417 549.328 54.7812V63H544.562V38.6875H549.328ZM583.984 43.8594C583.057 43.8594 582.234 44.0417 581.516 44.4062C580.807 44.7604 580.208 45.276 579.719 45.9531C579.24 46.6302 578.875 47.4479 578.625 48.4062C578.375 49.3646 578.25 50.4427 578.25 51.6406C578.25 53.2552 578.448 54.6354 578.844 55.7812C579.25 56.9167 579.875 57.7865 580.719 58.3906C581.562 58.9844 582.651 59.2812 583.984 59.2812C584.911 59.2812 585.839 59.1771 586.766 58.9688C587.703 58.7604 588.719 58.4635 589.812 58.0781V62.1406C588.802 62.5573 587.807 62.8542 586.828 63.0312C585.849 63.2188 584.75 63.3125 583.531 63.3125C581.177 63.3125 579.24 62.8281 577.719 61.8594C576.208 60.8802 575.089 59.5156 574.359 57.7656C573.63 56.0052 573.266 53.9531 573.266 51.6094C573.266 49.8802 573.5 48.2969 573.969 46.8594C574.438 45.4219 575.125 44.1771 576.031 43.125C576.938 42.0729 578.057 41.2604 579.391 40.6875C580.724 40.1146 582.255 39.8281 583.984 39.8281C585.12 39.8281 586.255 39.974 587.391 40.2656C588.536 40.5469 589.63 40.9375 590.672 41.4375L589.109 45.375C588.255 44.9688 587.396 44.6146 586.531 44.3125C585.667 44.0104 584.818 43.8594 583.984 43.8594ZM610.188 54.2344C610.188 55.6927 609.99 56.9844 609.594 58.1094C609.208 59.2344 608.641 60.1875 607.891 60.9688C607.151 61.7396 606.255 62.3229 605.203 62.7188C604.161 63.1146 602.984 63.3125 601.672 63.3125C600.443 63.3125 599.312 63.1146 598.281 62.7188C597.26 62.3229 596.37 61.7396 595.609 60.9688C594.859 60.1875 594.276 59.2344 593.859 58.1094C593.453 56.9844 593.25 55.6927 593.25 54.2344C593.25 52.2969 593.594 50.6562 594.281 49.3125C594.969 47.9688 595.948 46.9479 597.219 46.25C598.49 45.5521 600.005 45.2031 601.766 45.2031C603.401 45.2031 604.849 45.5521 606.109 46.25C607.38 46.9479 608.375 47.9688 609.094 49.3125C609.823 50.6562 610.188 52.2969 610.188 54.2344ZM598.109 54.2344C598.109 55.3802 598.234 56.3438 598.484 57.125C598.734 57.9062 599.125 58.4948 599.656 58.8906C600.188 59.2865 600.88 59.4844 601.734 59.4844C602.578 59.4844 603.26 59.2865 603.781 58.8906C604.312 58.4948 604.698 57.9062 604.938 57.125C605.188 56.3438 605.312 55.3802 605.312 54.2344C605.312 53.0781 605.188 52.1198 604.938 51.3594C604.698 50.5885 604.312 50.0104 603.781 49.625C603.25 49.2396 602.557 49.0469 601.703 49.0469C600.443 49.0469 599.526 49.4792 598.953 50.3438C598.391 51.2083 598.109 52.5052 598.109 54.2344ZM624.047 45.2031C625.911 45.2031 627.411 45.7135 628.547 46.7344C629.682 47.7448 630.25 49.3698 630.25 51.6094V63H625.484V52.7969C625.484 51.5469 625.255 50.6042 624.797 49.9688C624.349 49.3333 623.641 49.0156 622.672 49.0156C621.214 49.0156 620.219 49.5104 619.688 50.5C619.156 51.4896 618.891 52.9167 618.891 54.7812V63H614.125V45.5312H617.766L618.406 47.7656H618.672C619.047 47.1615 619.51 46.6719 620.062 46.2969C620.625 45.9219 621.245 45.6458 621.922 45.4688C622.609 45.2917 623.318 45.2031 624.047 45.2031ZM647.344 57.8125C647.344 59 647.062 60.0052 646.5 60.8281C645.948 61.6406 645.12 62.2604 644.016 62.6875C642.911 63.1042 641.536 63.3125 639.891 63.3125C638.672 63.3125 637.625 63.2344 636.75 63.0781C635.885 62.9219 635.01 62.6615 634.125 62.2969V58.3594C635.073 58.7865 636.089 59.1406 637.172 59.4219C638.266 59.6927 639.224 59.8281 640.047 59.8281C640.974 59.8281 641.635 59.6927 642.031 59.4219C642.438 59.1406 642.641 58.776 642.641 58.3281C642.641 58.0365 642.557 57.776 642.391 57.5469C642.234 57.3073 641.891 57.0417 641.359 56.75C640.828 56.4479 639.995 56.0573 638.859 55.5781C637.766 55.1198 636.865 54.6562 636.156 54.1875C635.458 53.7188 634.938 53.1667 634.594 52.5312C634.26 51.8854 634.094 51.0677 634.094 50.0781C634.094 48.4635 634.719 47.25 635.969 46.4375C637.229 45.6146 638.911 45.2031 641.016 45.2031C642.099 45.2031 643.13 45.3125 644.109 45.5312C645.099 45.75 646.115 46.099 647.156 46.5781L645.719 50.0156C644.854 49.6406 644.036 49.3333 643.266 49.0938C642.505 48.8542 641.729 48.7344 640.938 48.7344C640.24 48.7344 639.714 48.8281 639.359 49.0156C639.005 49.2031 638.828 49.4896 638.828 49.875C638.828 50.1562 638.917 50.4062 639.094 50.625C639.281 50.8438 639.635 51.0885 640.156 51.3594C640.688 51.6198 641.464 51.9583 642.484 52.375C643.474 52.7812 644.333 53.2083 645.062 53.6562C645.792 54.0938 646.354 54.6406 646.75 55.2969C647.146 55.9427 647.344 56.7812 647.344 57.8125ZM667.094 45.5312V63H663.438L662.797 60.7656H662.547C662.172 61.3594 661.703 61.8438 661.141 62.2188C660.578 62.5938 659.958 62.8698 659.281 63.0469C658.604 63.224 657.901 63.3125 657.172 63.3125C655.922 63.3125 654.833 63.0938 653.906 62.6562C652.979 62.2083 652.255 61.5156 651.734 60.5781C651.224 59.6406 650.969 58.4219 650.969 56.9219V45.5312H655.734V55.7344C655.734 56.9844 655.958 57.9271 656.406 58.5625C656.854 59.1979 657.568 59.5156 658.547 59.5156C659.516 59.5156 660.276 59.2969 660.828 58.8594C661.38 58.4115 661.766 57.7604 661.984 56.9062C662.214 56.0417 662.328 54.9896 662.328 53.75V45.5312H667.094ZM676.859 63H672.094V38.6875H676.859V63ZM689.234 59.5156C689.755 59.5156 690.26 59.4635 690.75 59.3594C691.25 59.2552 691.745 59.125 692.234 58.9688V62.5156C691.724 62.7448 691.089 62.9323 690.328 63.0781C689.578 63.2344 688.755 63.3125 687.859 63.3125C686.818 63.3125 685.88 63.1458 685.047 62.8125C684.224 62.4688 683.573 61.8802 683.094 61.0469C682.625 60.2031 682.391 59.0312 682.391 57.5312V49.1094H680.109V47.0938L682.734 45.5L684.109 41.8125H687.156V45.5312H692.047V49.1094H687.156V57.5312C687.156 58.1979 687.344 58.6979 687.719 59.0312C688.104 59.3542 688.609 59.5156 689.234 59.5156ZM702.938 45.1719C705.281 45.1719 707.078 45.6823 708.328 46.7031C709.578 47.724 710.203 49.276 710.203 51.3594V63H706.875L705.953 60.625H705.828C705.328 61.25 704.818 61.7604 704.297 62.1562C703.776 62.5521 703.177 62.8438 702.5 63.0312C701.823 63.2188 701 63.3125 700.031 63.3125C699 63.3125 698.073 63.1146 697.25 62.7188C696.438 62.3229 695.797 61.7188 695.328 60.9062C694.859 60.0833 694.625 59.0417 694.625 57.7812C694.625 55.9271 695.276 54.5625 696.578 53.6875C697.88 52.8021 699.833 52.3125 702.438 52.2188L705.469 52.125V51.3594C705.469 50.4427 705.229 49.7708 704.75 49.3438C704.271 48.9167 703.604 48.7031 702.75 48.7031C701.906 48.7031 701.078 48.8229 700.266 49.0625C699.453 49.3021 698.641 49.6042 697.828 49.9688L696.25 46.75C697.177 46.2604 698.214 45.875 699.359 45.5938C700.516 45.3125 701.708 45.1719 702.938 45.1719ZM705.469 54.9062L703.625 54.9688C702.083 55.0104 701.01 55.2865 700.406 55.7969C699.812 56.3073 699.516 56.9792 699.516 57.8125C699.516 58.5417 699.729 59.0625 700.156 59.375C700.583 59.6771 701.141 59.8281 701.828 59.8281C702.849 59.8281 703.708 59.526 704.406 58.9219C705.115 58.3177 705.469 57.4583 705.469 56.3438V54.9062ZM722.484 59.5156C723.005 59.5156 723.51 59.4635 724 59.3594C724.5 59.2552 724.995 59.125 725.484 58.9688V62.5156C724.974 62.7448 724.339 62.9323 723.578 63.0781C722.828 63.2344 722.005 63.3125 721.109 63.3125C720.068 63.3125 719.13 63.1458 718.297 62.8125C717.474 62.4688 716.823 61.8802 716.344 61.0469C715.875 60.2031 715.641 59.0312 715.641 57.5312V49.1094H713.359V47.0938L715.984 45.5L717.359 41.8125H720.406V45.5312H725.297V49.1094H720.406V57.5312C720.406 58.1979 720.594 58.6979 720.969 59.0312C721.354 59.3542 721.859 59.5156 722.484 59.5156ZM733.797 45.5312V63H729.031V45.5312H733.797ZM731.422 38.6875C732.13 38.6875 732.74 38.8542 733.25 39.1875C733.76 39.5104 734.016 40.1198 734.016 41.0156C734.016 41.901 733.76 42.5156 733.25 42.8594C732.74 43.1927 732.13 43.3594 731.422 43.3594C730.703 43.3594 730.089 43.1927 729.578 42.8594C729.078 42.5156 728.828 41.901 728.828 41.0156C728.828 40.1198 729.078 39.5104 729.578 39.1875C730.089 38.8542 730.703 38.6875 731.422 38.6875ZM754.688 54.2344C754.688 55.6927 754.49 56.9844 754.094 58.1094C753.708 59.2344 753.141 60.1875 752.391 60.9688C751.651 61.7396 750.755 62.3229 749.703 62.7188C748.661 63.1146 747.484 63.3125 746.172 63.3125C744.943 63.3125 743.812 63.1146 742.781 62.7188C741.76 62.3229 740.87 61.7396 740.109 60.9688C739.359 60.1875 738.776 59.2344 738.359 58.1094C737.953 56.9844 737.75 55.6927 737.75 54.2344C737.75 52.2969 738.094 50.6562 738.781 49.3125C739.469 47.9688 740.448 46.9479 741.719 46.25C742.99 45.5521 744.505 45.2031 746.266 45.2031C747.901 45.2031 749.349 45.5521 750.609 46.25C751.88 46.9479 752.875 47.9688 753.594 49.3125C754.323 50.6562 754.688 52.2969 754.688 54.2344ZM742.609 54.2344C742.609 55.3802 742.734 56.3438 742.984 57.125C743.234 57.9062 743.625 58.4948 744.156 58.8906C744.688 59.2865 745.38 59.4844 746.234 59.4844C747.078 59.4844 747.76 59.2865 748.281 58.8906C748.812 58.4948 749.198 57.9062 749.438 57.125C749.688 56.3438 749.812 55.3802 749.812 54.2344C749.812 53.0781 749.688 52.1198 749.438 51.3594C749.198 50.5885 748.812 50.0104 748.281 49.625C747.75 49.2396 747.057 49.0469 746.203 49.0469C744.943 49.0469 744.026 49.4792 743.453 50.3438C742.891 51.2083 742.609 52.5052 742.609 54.2344ZM768.547 45.2031C770.411 45.2031 771.911 45.7135 773.047 46.7344C774.182 47.7448 774.75 49.3698 774.75 51.6094V63H769.984V52.7969C769.984 51.5469 769.755 50.6042 769.297 49.9688C768.849 49.3333 768.141 49.0156 767.172 49.0156C765.714 49.0156 764.719 49.5104 764.188 50.5C763.656 51.4896 763.391 52.9167 763.391 54.7812V63H758.625V45.5312H762.266L762.906 47.7656H763.172C763.547 47.1615 764.01 46.6719 764.562 46.2969C765.125 45.9219 765.745 45.6458 766.422 45.4688C767.109 45.2917 767.818 45.2031 768.547 45.2031ZM791.844 57.8125C791.844 59 791.562 60.0052 791 60.8281C790.448 61.6406 789.62 62.2604 788.516 62.6875C787.411 63.1042 786.036 63.3125 784.391 63.3125C783.172 63.3125 782.125 63.2344 781.25 63.0781C780.385 62.9219 779.51 62.6615 778.625 62.2969V58.3594C779.573 58.7865 780.589 59.1406 781.672 59.4219C782.766 59.6927 783.724 59.8281 784.547 59.8281C785.474 59.8281 786.135 59.6927 786.531 59.4219C786.938 59.1406 787.141 58.776 787.141 58.3281C787.141 58.0365 787.057 57.776 786.891 57.5469C786.734 57.3073 786.391 57.0417 785.859 56.75C785.328 56.4479 784.495 56.0573 783.359 55.5781C782.266 55.1198 781.365 54.6562 780.656 54.1875C779.958 53.7188 779.438 53.1667 779.094 52.5312C778.76 51.8854 778.594 51.0677 778.594 50.0781C778.594 48.4635 779.219 47.25 780.469 46.4375C781.729 45.6146 783.411 45.2031 785.516 45.2031C786.599 45.2031 787.63 45.3125 788.609 45.5312C789.599 45.75 790.615 46.099 791.656 46.5781L790.219 50.0156C789.354 49.6406 788.536 49.3333 787.766 49.0938C787.005 48.8542 786.229 48.7344 785.438 48.7344C784.74 48.7344 784.214 48.8281 783.859 49.0156C783.505 49.2031 783.328 49.4896 783.328 49.875C783.328 50.1562 783.417 50.4062 783.594 50.625C783.781 50.8438 784.135 51.0885 784.656 51.3594C785.188 51.6198 785.964 51.9583 786.984 52.375C787.974 52.7812 788.833 53.2083 789.562 53.6562C790.292 54.0938 790.854 54.6406 791.25 55.2969C791.646 55.9427 791.844 56.7812 791.844 57.8125Z" fill="#1A3E1F"/>
<path d="M270.493 108.029L253.506 158H241.953L225 108.029H235.698L245.098 137.766C245.257 138.267 245.519 139.213 245.884 140.603C246.248 141.97 246.613 143.428 246.978 144.978C247.365 146.504 247.627 147.769 247.764 148.771C247.9 147.769 248.14 146.504 248.481 144.978C248.846 143.451 249.199 142.004 249.541 140.637C249.906 139.247 250.168 138.29 250.327 137.766L259.795 108.029H270.493ZM293.05 119.001C298.177 119.001 302.108 120.118 304.842 122.351C307.577 124.584 308.944 127.979 308.944 132.536V158H301.664L299.647 152.805H299.374C298.28 154.172 297.163 155.288 296.024 156.154C294.885 157.02 293.574 157.658 292.093 158.068C290.612 158.479 288.812 158.684 286.693 158.684C284.437 158.684 282.409 158.251 280.609 157.385C278.832 156.519 277.43 155.197 276.405 153.42C275.379 151.62 274.867 149.341 274.867 146.584C274.867 142.528 276.291 139.543 279.139 137.629C281.988 135.692 286.26 134.621 291.957 134.416L298.588 134.211V132.536C298.588 130.531 298.063 129.061 297.015 128.127C295.967 127.193 294.509 126.726 292.64 126.726C290.795 126.726 288.983 126.988 287.206 127.512C285.428 128.036 283.651 128.697 281.874 129.494L278.421 122.453C280.449 121.382 282.717 120.539 285.223 119.924C287.753 119.309 290.362 119.001 293.05 119.001ZM298.588 140.295L294.554 140.432C291.182 140.523 288.835 141.127 287.513 142.243C286.214 143.36 285.565 144.829 285.565 146.652C285.565 148.247 286.032 149.387 286.966 150.07C287.901 150.731 289.12 151.062 290.624 151.062C292.857 151.062 294.737 150.401 296.263 149.079C297.813 147.757 298.588 145.878 298.588 143.439V140.295ZM331.535 119.787V158H321.111V119.787H331.535ZM326.34 104.816C327.89 104.816 329.223 105.181 330.339 105.91C331.456 106.617 332.014 107.95 332.014 109.909C332.014 111.846 331.456 113.19 330.339 113.942C329.223 114.672 327.89 115.036 326.34 115.036C324.768 115.036 323.423 114.672 322.307 113.942C321.213 113.19 320.666 111.846 320.666 109.909C320.666 107.95 321.213 106.617 322.307 105.91C323.423 105.181 324.768 104.816 326.34 104.816ZM370.567 146.652C370.567 149.25 369.952 151.449 368.721 153.249C367.514 155.026 365.702 156.382 363.287 157.316C360.872 158.228 357.864 158.684 354.263 158.684C351.597 158.684 349.307 158.513 347.393 158.171C345.502 157.829 343.588 157.259 341.651 156.462V147.849C343.725 148.783 345.946 149.558 348.316 150.173C350.709 150.765 352.805 151.062 354.605 151.062C356.633 151.062 358.08 150.765 358.946 150.173C359.835 149.558 360.279 148.76 360.279 147.78C360.279 147.142 360.097 146.573 359.732 146.071C359.39 145.547 358.638 144.966 357.476 144.328C356.314 143.667 354.491 142.813 352.008 141.765C349.615 140.762 347.644 139.748 346.095 138.723C344.568 137.697 343.429 136.49 342.677 135.1C341.947 133.687 341.583 131.898 341.583 129.733C341.583 126.201 342.95 123.547 345.684 121.77C348.442 119.969 352.122 119.069 356.724 119.069C359.094 119.069 361.35 119.309 363.492 119.787C365.657 120.266 367.878 121.029 370.157 122.077L367.012 129.597C365.121 128.776 363.332 128.104 361.646 127.58C359.983 127.056 358.285 126.794 356.554 126.794C355.027 126.794 353.876 126.999 353.101 127.409C352.327 127.819 351.939 128.446 351.939 129.289C351.939 129.904 352.133 130.451 352.52 130.93C352.93 131.408 353.705 131.944 354.845 132.536C356.007 133.106 357.704 133.846 359.937 134.758C362.102 135.646 363.982 136.581 365.577 137.561C367.172 138.518 368.402 139.714 369.268 141.149C370.134 142.562 370.567 144.396 370.567 146.652ZM390.527 104.816V115.651C390.527 117.543 390.458 119.343 390.322 121.052C390.208 122.761 390.117 123.968 390.048 124.675H390.595C391.415 123.353 392.384 122.282 393.5 121.462C394.64 120.642 395.893 120.038 397.26 119.65C398.627 119.263 400.097 119.069 401.669 119.069C404.427 119.069 406.83 119.559 408.881 120.539C410.932 121.496 412.527 123.011 413.666 125.085C414.806 127.136 415.375 129.802 415.375 133.083V158H404.951V135.681C404.951 132.946 404.449 130.884 403.447 129.494C402.444 128.104 400.895 127.409 398.798 127.409C396.702 127.409 395.05 127.899 393.842 128.879C392.635 129.836 391.78 131.26 391.279 133.151C390.777 135.02 390.527 137.31 390.527 140.021V158H380.102V104.816H390.527ZM449.212 119.069C453.291 119.069 456.572 120.186 459.056 122.419C461.539 124.629 462.781 128.184 462.781 133.083V158H452.356V135.681C452.356 132.946 451.855 130.884 450.853 129.494C449.873 128.104 448.323 127.409 446.204 127.409C443.014 127.409 440.838 128.492 439.676 130.656C438.514 132.821 437.933 135.943 437.933 140.021V158H427.508V119.787H435.472L436.873 124.675H437.454C438.274 123.353 439.288 122.282 440.496 121.462C441.727 120.642 443.082 120.038 444.563 119.65C446.067 119.263 447.617 119.069 449.212 119.069ZM490.568 119.001C495.695 119.001 499.626 120.118 502.36 122.351C505.094 124.584 506.462 127.979 506.462 132.536V158H499.181L497.165 152.805H496.891C495.797 154.172 494.681 155.288 493.542 156.154C492.402 157.02 491.092 157.658 489.611 158.068C488.13 158.479 486.33 158.684 484.211 158.684C481.955 158.684 479.927 158.251 478.127 157.385C476.349 156.519 474.948 155.197 473.922 153.42C472.897 151.62 472.384 149.341 472.384 146.584C472.384 142.528 473.809 139.543 476.657 137.629C479.505 135.692 483.778 134.621 489.474 134.416L496.105 134.211V132.536C496.105 130.531 495.581 129.061 494.533 128.127C493.485 127.193 492.026 126.726 490.158 126.726C488.312 126.726 486.501 126.988 484.723 127.512C482.946 128.036 481.169 128.697 479.391 129.494L475.939 122.453C477.967 121.382 480.234 120.539 482.741 119.924C485.27 119.309 487.879 119.001 490.568 119.001ZM496.105 140.295L492.072 140.432C488.699 140.523 486.352 141.127 485.031 142.243C483.732 143.36 483.083 144.829 483.083 146.652C483.083 148.247 483.55 149.387 484.484 150.07C485.418 150.731 486.637 151.062 488.141 151.062C490.374 151.062 492.254 150.401 493.781 149.079C495.33 147.757 496.105 145.878 496.105 143.439V140.295Z" fill="white"/>
<path d="M527.72 158L513.159 119.787H524.063L531.445 141.56C531.856 142.836 532.175 144.18 532.403 145.593C532.653 147.006 532.824 148.27 532.915 149.387H533.189C533.257 148.179 533.417 146.892 533.667 145.524C533.941 144.157 534.294 142.836 534.727 141.56L542.075 119.787H552.979L538.418 158H527.72ZM570.306 119.787V158H559.882V119.787H570.306ZM565.111 104.816C566.661 104.816 567.994 105.181 569.11 105.91C570.227 106.617 570.785 107.95 570.785 109.909C570.785 111.846 570.227 113.19 569.11 113.942C567.994 114.672 566.661 115.036 565.111 115.036C563.539 115.036 562.194 114.672 561.078 113.942C559.984 113.19 559.437 111.846 559.437 109.909C559.437 107.95 559.984 106.617 561.078 105.91C562.194 105.181 563.539 104.816 565.111 104.816ZM603.082 108.029H618.634C625.287 108.029 630.323 108.964 633.741 110.832C637.159 112.701 638.868 115.982 638.868 120.676C638.868 122.567 638.561 124.276 637.945 125.803C637.353 127.329 636.487 128.583 635.348 129.562C634.208 130.542 632.818 131.18 631.178 131.477V131.818C632.841 132.16 634.345 132.753 635.689 133.596C637.034 134.416 638.105 135.624 638.902 137.219C639.723 138.791 640.133 140.887 640.133 143.508C640.133 146.538 639.392 149.136 637.911 151.301C636.43 153.465 634.311 155.129 631.554 156.291C628.819 157.43 625.561 158 621.778 158H603.082V108.029ZM613.678 127.819H619.83C622.906 127.819 625.037 127.341 626.222 126.384C627.407 125.404 627.999 123.968 627.999 122.077C627.999 120.163 627.293 118.796 625.88 117.976C624.49 117.132 622.28 116.711 619.249 116.711H613.678V127.819ZM613.678 136.228V149.25H620.582C623.772 149.25 625.994 148.635 627.247 147.404C628.5 146.174 629.127 144.522 629.127 142.448C629.127 141.218 628.854 140.135 628.307 139.201C627.76 138.267 626.837 137.538 625.538 137.014C624.262 136.49 622.496 136.228 620.24 136.228H613.678ZM666.347 119.001C671.474 119.001 675.405 120.118 678.139 122.351C680.874 124.584 682.241 127.979 682.241 132.536V158H674.961L672.944 152.805H672.671C671.577 154.172 670.46 155.288 669.321 156.154C668.182 157.02 666.871 157.658 665.39 158.068C663.909 158.479 662.109 158.684 659.99 158.684C657.734 158.684 655.706 158.251 653.906 157.385C652.129 156.519 650.727 155.197 649.702 153.42C648.676 151.62 648.164 149.341 648.164 146.584C648.164 142.528 649.588 139.543 652.436 137.629C655.284 135.692 659.557 134.621 665.254 134.416L671.884 134.211V132.536C671.884 130.531 671.36 129.061 670.312 128.127C669.264 127.193 667.806 126.726 665.937 126.726C664.091 126.726 662.28 126.988 660.503 127.512C658.725 128.036 656.948 128.697 655.171 129.494L651.718 122.453C653.746 121.382 656.014 120.539 658.52 119.924C661.049 119.309 663.658 119.001 666.347 119.001ZM671.884 140.295L667.851 140.432C664.479 140.523 662.132 141.127 660.81 142.243C659.511 143.36 658.862 144.829 658.862 146.652C658.862 148.247 659.329 149.387 660.263 150.07C661.198 150.731 662.417 151.062 663.921 151.062C666.154 151.062 668.033 150.401 669.56 149.079C671.11 147.757 671.884 145.878 671.884 143.439V140.295ZM715.736 119.069C716.26 119.069 716.863 119.104 717.547 119.172C718.253 119.217 718.823 119.286 719.256 119.377L718.47 129.152C718.128 129.038 717.638 128.959 717 128.913C716.385 128.845 715.849 128.811 715.394 128.811C714.049 128.811 712.739 128.981 711.463 129.323C710.21 129.665 709.082 130.223 708.079 130.998C707.077 131.75 706.279 132.753 705.687 134.006C705.117 135.236 704.832 136.752 704.832 138.552V158H694.407V119.787H702.303L703.841 126.213H704.354C705.106 124.914 706.04 123.729 707.156 122.658C708.296 121.564 709.583 120.699 711.019 120.061C712.477 119.4 714.049 119.069 715.736 119.069ZM743.249 119.001C748.376 119.001 752.306 120.118 755.041 122.351C757.775 124.584 759.142 127.979 759.142 132.536V158H751.862L749.846 152.805H749.572C748.478 154.172 747.362 155.288 746.222 156.154C745.083 157.02 743.773 157.658 742.292 158.068C740.811 158.479 739.011 158.684 736.891 158.684C734.636 158.684 732.608 158.251 730.807 157.385C729.03 156.519 727.629 155.197 726.603 153.42C725.578 151.62 725.065 149.341 725.065 146.584C725.065 142.528 726.489 139.543 729.338 137.629C732.186 135.692 736.458 134.621 742.155 134.416L748.786 134.211V132.536C748.786 130.531 748.262 129.061 747.214 128.127C746.166 127.193 744.707 126.726 742.839 126.726C740.993 126.726 739.181 126.988 737.404 127.512C735.627 128.036 733.849 128.697 732.072 129.494L728.62 122.453C730.648 121.382 732.915 120.539 735.422 119.924C737.951 119.309 740.56 119.001 743.249 119.001ZM748.786 140.295L744.753 140.432C741.38 140.523 739.033 141.127 737.712 142.243C736.413 143.36 735.763 144.829 735.763 146.652C735.763 148.247 736.231 149.387 737.165 150.07C738.099 150.731 739.318 151.062 740.822 151.062C743.055 151.062 744.935 150.401 746.462 149.079C748.011 147.757 748.786 145.878 748.786 143.439V140.295ZM780.401 158L765.84 119.787H776.744L784.126 141.56C784.536 142.836 784.856 144.18 785.083 145.593C785.334 147.006 785.505 148.27 785.596 149.387H785.87C785.938 148.179 786.097 146.892 786.348 145.524C786.621 144.157 786.975 142.836 787.408 141.56L794.756 119.787H805.66L791.099 158H780.401ZM822.987 104.816V128.605C822.987 130.041 822.93 131.477 822.816 132.912C822.702 134.348 822.577 135.783 822.44 137.219H822.577C823.284 136.216 824.001 135.225 824.73 134.245C825.482 133.265 826.28 132.32 827.123 131.408L837.821 119.787H849.579L834.403 136.364L850.502 158H838.471L827.465 142.517L822.987 146.105V158H812.562V104.816H822.987ZM873.025 119.001C878.152 119.001 882.083 120.118 884.817 122.351C887.551 124.584 888.919 127.979 888.919 132.536V158H881.638L879.622 152.805H879.348C878.255 154.172 877.138 155.288 875.999 156.154C874.859 157.02 873.549 157.658 872.068 158.068C870.587 158.479 868.787 158.684 866.668 158.684C864.412 158.684 862.384 158.251 860.584 157.385C858.806 156.519 857.405 155.197 856.38 153.42C855.354 151.62 854.841 149.341 854.841 146.584C854.841 142.528 856.266 139.543 859.114 137.629C861.962 135.692 866.235 134.621 871.931 134.416L878.562 134.211V132.536C878.562 130.531 878.038 129.061 876.99 128.127C875.942 127.193 874.483 126.726 872.615 126.726C870.769 126.726 868.958 126.988 867.18 127.512C865.403 128.036 863.626 128.697 861.848 129.494L858.396 122.453C860.424 121.382 862.691 120.539 865.198 119.924C867.727 119.309 870.336 119.001 873.025 119.001ZM878.562 140.295L874.529 140.432C871.157 140.523 868.81 141.127 867.488 142.243C866.189 143.36 865.54 144.829 865.54 146.652C865.54 148.247 866.007 149.387 866.941 150.07C867.875 150.731 869.094 151.062 870.598 151.062C872.831 151.062 874.711 150.401 876.238 149.079C877.787 147.757 878.562 145.878 878.562 143.439V140.295ZM922.413 119.069C922.937 119.069 923.541 119.104 924.225 119.172C924.931 119.217 925.501 119.286 925.934 119.377L925.148 129.152C924.806 129.038 924.316 128.959 923.678 128.913C923.063 128.845 922.527 128.811 922.071 128.811C920.727 128.811 919.417 128.981 918.141 129.323C916.888 129.665 915.76 130.223 914.757 130.998C913.754 131.75 912.957 132.753 912.364 134.006C911.795 135.236 911.51 136.752 911.51 138.552V158H901.085V119.787H908.981L910.519 126.213H911.031C911.783 124.914 912.718 123.729 913.834 122.658C914.973 121.564 916.261 120.699 917.696 120.061C919.155 119.4 920.727 119.069 922.413 119.069Z" fill="#1A3E1F"/>
</svg>
