<svg width="154" height="77" viewBox="0 0 154 77" fill="none" xmlns="http://www.w3.org/2000/svg">
<g clip-path="url(#clip0_222_37)">
<path fill-rule="evenodd" clip-rule="evenodd" d="M1.51935 0.57348C1.07169 0.612353 0.805654 0.831944 1.20631 0.831944C1.7097 0.831944 3.32836 2.19639 5.02535 4.05115C6.92862 6.13147 7.96763 7.91044 8.63684 10.2348C9.05446 11.6849 9.16397 12.1418 9.15927 12.4135C9.1564 12.5711 9.21649 12.9582 9.29263 13.2735C9.39801 13.7096 9.42541 17.567 9.40741 29.3823C9.39434 37.9268 9.35948 44.9567 9.33001 45.0045C9.18587 45.2376 9.39434 50.4343 9.55797 50.6906C9.6106 50.773 9.69477 51.1084 9.74499 51.4359C9.83386 52.0156 9.96791 52.455 10.2818 53.1955C10.3659 53.3942 10.4386 53.6264 10.4432 53.7115C10.4478 53.7966 10.5496 54.021 10.6693 54.2102C10.7891 54.3994 10.9878 54.7348 11.1109 54.9556C11.6109 55.8518 14.1315 57.9369 14.715 57.9369C14.7965 57.9369 14.9632 58.0127 15.0857 58.1053C15.208 58.1979 15.4269 58.2753 15.572 58.2773C15.7169 58.2793 16.0007 58.3685 16.2027 58.4755C16.7437 58.7624 20.9764 58.7609 21.5233 58.4737C21.7252 58.3676 22.012 58.2809 22.1607 58.2809C22.3095 58.2809 22.5314 58.2051 22.6538 58.1126C22.7762 58.02 22.9895 57.9426 23.1276 57.9406C23.2658 57.9385 23.4093 57.8879 23.4463 57.8278C23.4834 57.7678 23.8348 57.559 24.2271 57.3638C25.7392 56.6115 27.0803 55.2635 27.7637 53.8089C28.3769 52.5034 28.4195 52.3865 28.4932 51.8022C28.533 51.4868 28.5919 51.1385 28.624 51.0281C28.7128 50.7238 28.3369 50.777 28.2185 51.0855C27.9864 51.6898 25.6239 53.6181 24.4806 54.1362C23.3054 54.669 23.1607 54.7042 21.7419 54.8034C20.0116 54.9244 18.6623 54.2529 17.5539 52.7195C17.1126 52.109 17.0089 51.904 16.6842 50.9995C16.4991 50.4842 16.4664 49.6658 16.361 42.9153C16.2005 32.641 16.202 31.211 16.3742 30.0151C16.5099 29.0725 16.7451 28.0791 16.9714 27.4924C17.1802 26.9508 17.8421 25.6863 17.974 25.5769C18.053 25.5113 18.1176 25.4043 18.1176 25.3392C18.1176 25.274 18.2466 25.0516 18.4043 24.8448C18.562 24.6381 18.691 24.4264 18.691 24.3743C18.691 24.145 20.6253 22.1018 21.5429 21.3621C22.4654 20.6185 23.6407 19.9816 24.0907 19.9816C24.4331 19.9816 24.6314 19.8122 24.3951 19.7215C24.2078 19.6498 21.4796 19.8297 20.5257 19.9768C19.2436 20.1744 17.8335 20.1287 17.3585 19.8743C16.5928 19.4638 16.3562 19.006 16.2293 17.6882C16.1898 17.2783 16.08 16.3099 15.9854 15.5362C15.8907 14.7625 15.84 14.0862 15.8728 14.0332C15.9055 13.9802 15.879 13.7618 15.8137 13.5478C15.7486 13.3339 15.6538 12.9008 15.6031 12.5855C15.228 10.2506 14.0902 7.82742 12.5803 6.14764C11.7605 5.23568 10.1149 3.70416 9.95082 3.70049C9.8639 3.69855 8.81343 3.00388 8.71481 2.88302C8.68328 2.84449 8.34787 2.65724 7.96946 2.46723C7.59106 2.27711 7.12665 2.03814 6.93745 1.93609C6.74824 1.83415 6.52819 1.75044 6.4485 1.74998C6.3688 1.74964 6.214 1.704 6.10449 1.64861C5.58355 1.38522 5.01755 1.17595 4.82617 1.17595C4.70989 1.17595 4.42551 1.09694 4.19434 1.00028C3.96317 0.903726 3.7367 0.847653 3.69118 0.875747C3.64565 0.903955 3.32871 0.854419 2.98677 0.765665C2.08272 0.531168 2.05268 0.527269 1.51935 0.57348ZM48.6195 19.0045C48.1465 19.0841 47.7223 19.128 47.6768 19.1021C47.6314 19.0762 47.4405 19.1344 47.2525 19.2316C47.0646 19.3288 46.7921 19.4099 46.6472 19.4119C46.5021 19.4139 46.2832 19.4913 46.1609 19.5839C46.0384 19.6765 45.8578 19.7523 45.7596 19.7523C45.4681 19.7522 44.1892 20.4529 43.5148 20.9822C42.508 21.7724 41.5807 23.109 41.0665 24.511C40.828 25.1615 40.5586 26.3463 40.5582 26.7471C40.5574 27.3391 41.0047 28.3524 41.2667 28.3524C41.3564 28.3524 41.524 27.9326 41.793 27.0337C41.9062 26.6553 42.0695 26.1831 42.1559 25.9844C42.2421 25.7857 42.3127 25.5695 42.3127 25.5041C42.3127 25.3697 42.9174 24.2299 43.2653 23.7083C43.8026 22.9028 44.9718 21.8553 45.8675 21.3768C46.2144 21.1914 47.089 20.8866 47.411 20.8388C47.5396 20.8197 47.8251 20.7481 48.0454 20.6795C48.6773 20.4831 51.7511 20.5188 52.2529 20.7284C52.4812 20.8239 52.6894 20.8806 52.7156 20.8545C52.7734 20.7967 53.8288 21.1619 54.275 21.3941C55.4765 22.0194 56.6416 23.5404 56.9263 24.855C56.9673 25.0442 57.0557 25.457 57.1229 25.7724C57.2629 26.43 57.1866 27.7274 56.9442 28.8111C56.6774 30.0046 56.5936 30.2526 56.092 31.3338C55.8212 31.9176 55.0964 32.9061 54.4235 33.6096C53.883 34.1746 52.4643 35.3083 52.0596 35.4987C51.965 35.5432 51.6296 35.7326 51.3142 35.9198C50.9989 36.1068 50.5087 36.3681 50.2249 36.5004C49.9411 36.6328 49.5719 36.8144 49.4045 36.9041C49.2371 36.9939 49.0241 37.0672 48.9312 37.0672C48.8383 37.0672 48.6981 37.1446 48.6195 37.2392C48.541 37.3338 48.3792 37.4112 48.2599 37.4112C48.1407 37.4112 47.9534 37.4603 47.8439 37.5204C47.6395 37.6323 47.2306 37.803 46.3261 38.1534C46.0423 38.2633 45.6695 38.4273 45.4976 38.5178C45.3258 38.6082 45.1452 38.687 45.0963 38.6929C44.8376 38.7241 43.0785 39.5651 42.2554 40.0511C41.9401 40.2373 41.6047 40.4242 41.5101 40.4665C41.2962 40.5621 39.8625 41.712 39.4086 42.1519C39.2238 42.3312 38.8912 42.7152 38.6698 43.0054C38.4484 43.2954 38.1777 43.6289 38.0682 43.7463C37.6997 44.142 36.6558 46.3852 36.3738 47.3874C36.0988 48.3647 36.0509 51.5061 36.2985 52.3182C36.7543 53.8136 37.1228 54.4993 38.1363 55.7376C38.7778 56.5214 41.511 58.2809 42.0869 58.2809C42.1871 58.2809 42.369 58.3567 42.4915 58.4493C42.6138 58.5419 42.8431 58.6199 43.0007 58.6225C43.1584 58.6252 43.5251 58.6996 43.8156 58.7878C44.4668 58.9853 47.0615 58.9668 47.4366 58.7619C47.5744 58.6865 47.7986 58.6249 47.9349 58.6249C48.0713 58.6249 48.3198 58.5535 48.4872 58.4662C48.6546 58.379 48.9979 58.2112 49.2502 58.0936C49.5025 57.9759 49.8685 57.7636 50.0636 57.6216C50.2588 57.4797 50.4599 57.3636 50.5105 57.3636C50.5611 57.3636 51.0624 56.912 51.6244 56.3602C52.5825 55.4196 53.6999 53.9119 54.3651 52.6625C54.5161 52.3788 54.6718 52.1208 54.7113 52.0892C54.7506 52.0574 54.8843 51.8411 55.0083 51.6086C55.3362 50.9935 56.1964 49.8452 56.4459 49.6894C56.8188 49.4564 57.0865 49.6487 57.2756 50.2851C57.4556 50.8917 57.4469 51.0585 57.1044 53.5493C56.8787 55.1899 57.5004 56.935 58.7346 58.1261C59.4607 58.8268 60.5956 59.5423 60.9808 59.5423C61.0914 59.5423 61.3097 59.6327 61.4655 59.743C61.711 59.9167 62.0347 59.9436 63.8741 59.9436C65.679 59.9436 66.0762 59.9118 66.5115 59.7318C67.8437 59.1811 68.3273 58.8703 69.2312 57.9835C70.1454 57.0867 70.4015 56.69 69.9765 56.8292C68.9605 57.162 68.7956 57.1804 68.1418 57.0337C67.7793 56.9523 67.3712 56.8694 67.2352 56.8493C66.4824 56.7382 65.5595 56.3338 65.0644 55.8979C64.2465 55.1779 64.1335 54.5751 64.2422 51.5155C64.3488 48.5153 64.2968 31.7801 64.179 31.2191C64.1328 30.9984 64.0459 30.4824 63.986 30.0725C63.8703 29.2809 63.6734 28.444 63.5138 28.0658C63.4605 27.9396 63.3392 27.5996 63.2441 27.3102C63.0571 26.7409 62.6863 25.9062 62.4622 25.5501C61.1529 23.469 59.6944 21.9669 58.0023 20.9563C57.4215 20.6094 55.6701 19.7523 55.5423 19.7523C55.4601 19.7523 55.2233 19.6808 55.0162 19.5935C54.5478 19.3959 53.7352 19.1839 53.2062 19.1211C52.9855 19.095 52.4437 19.0209 52.0022 18.9565C50.9628 18.8049 49.6977 18.8229 48.6195 19.0045ZM78.7831 19.1454C78.7863 19.1954 79.2784 19.4685 79.8766 19.7523C81.1065 20.3357 82.1603 21.2519 82.4633 22.0012C82.8598 22.9817 82.9214 23.3196 83.025 25.0844C83.1634 27.4398 83.2771 28.0268 83.8102 29.1388C84.4187 30.4082 86.3645 30.8569 87.9509 30.0938C88.5448 29.808 89.6887 28.8744 90.2524 28.215C90.5246 27.8968 90.8124 27.5713 90.892 27.4917C91.0868 27.2969 91.4764 26.6476 91.6314 26.2597C91.7006 26.0863 91.8039 25.9444 91.8608 25.9444C91.9177 25.9444 91.9643 25.8475 91.9643 25.729C91.9643 25.6107 92.0417 25.4496 92.1363 25.371C92.2309 25.2925 92.3083 25.1565 92.3083 25.0688C92.3083 24.981 92.3546 24.8196 92.4111 24.7101C92.5641 24.4141 92.8275 23.6753 93.034 22.963C93.3613 21.8342 93.5036 19.5914 93.2608 19.3899C93.184 19.3262 92.0522 19.2564 90.6808 19.231C83.5874 19.0992 78.778 19.0646 78.7831 19.1454ZM107.617 19.3258C106.51 19.4171 105.717 19.5914 104.75 19.9553C104.21 20.1588 103.103 20.6514 102.858 20.7978C102.763 20.8542 102.608 20.9351 102.514 20.9774C102.231 21.1042 100.308 22.2939 99.8764 22.6097C98.5062 23.6112 96.2792 25.7236 95.2727 26.9764C95.0446 27.2602 94.7295 27.63 94.5723 27.7981C94.2917 28.0982 92.5908 30.3916 92.3656 30.7735C92.3025 30.8804 91.9419 31.4244 91.5643 31.9823C90.9067 32.9536 90.5017 33.6286 90.2572 34.1607C90.1948 34.2965 90.089 34.4414 90.022 34.4828C89.955 34.5242 89.9002 34.6519 89.9002 34.7666C89.9002 34.8813 89.8275 35.0354 89.7388 35.1092C89.65 35.1828 89.4937 35.4084 89.3916 35.6105C88.7514 36.8769 86.7888 39.2459 86.3798 39.2459C86.2962 39.2459 86.1381 39.2899 86.0285 39.3436C85.919 39.3973 85.5715 39.5598 85.2561 39.7046C84.9408 39.8494 84.5932 40.0119 84.4837 40.0656C84.3742 40.1194 84.2076 40.1633 84.1136 40.1633C83.9654 40.1633 83.9436 40.6637 83.9501 43.9187C83.9548 46.3103 83.91 47.9031 83.8269 48.3048C83.755 48.6516 83.6508 49.1676 83.595 49.4515C83.3567 50.6672 83.2406 51.1115 83.1337 51.2184C83.0713 51.2809 83.0201 51.4702 83.0201 51.6391C83.0201 51.8079 82.9427 52.0103 82.8481 52.0888C82.7535 52.1674 82.6761 52.2944 82.6761 52.3713C82.6761 52.4932 82.1448 53.5819 81.8161 54.1337C80.8627 55.7338 78.6418 57.8538 77.4013 58.3479C77.3067 58.3855 77.1261 58.4587 77 58.5103C76.8739 58.5619 76.6717 58.6363 76.5508 58.6756C76.4223 58.7175 76.3746 58.7877 76.4362 58.8448C76.494 58.8984 81.0692 58.9676 86.6035 58.9983C95.8299 59.0496 96.6657 59.0388 96.6657 58.8683C96.6657 58.766 96.4878 58.5404 96.2705 58.3671C95.8654 58.0438 94.8693 57.4783 94.7049 57.4783C94.6545 57.4783 94.3193 57.3013 93.9603 57.0849C93.2225 56.6406 92.4538 55.9517 92.2984 55.5956C92.2411 55.4643 92.1481 55.2795 92.0918 55.1849C91.626 54.4018 91.2116 52.9722 91.0447 51.5728C90.9921 51.1313 90.9066 50.4347 90.8546 50.0248C90.7575 49.2577 90.7245 45.1839 90.8062 44.062C90.8316 43.7152 90.8913 43.3797 90.939 43.3167C90.9867 43.2536 91.0517 42.8666 91.0834 42.4567C91.1548 41.5334 91.3397 40.4538 91.4594 40.26C91.5089 40.1799 91.5856 39.9061 91.6299 39.6515C91.7067 39.2097 91.7826 38.9657 92.1663 37.9273C92.4515 37.1553 92.5524 36.9082 92.7203 36.5706C92.809 36.3921 92.8816 36.179 92.8816 36.0973C92.8816 36.0155 92.959 35.8844 93.0536 35.8059C93.1482 35.7273 93.2256 35.5929 93.2256 35.5072C93.2256 35.4214 93.432 35.014 93.6843 34.6019C93.9366 34.1897 94.143 33.8249 94.143 33.791C94.143 33.7573 94.4268 33.3459 94.7736 32.8768C95.1205 32.4078 95.4043 31.9906 95.4043 31.9497C95.4043 31.8894 96.5707 30.3952 96.7802 30.1871C96.9009 30.0673 98.2456 28.5092 98.5101 28.1826C99.5716 26.8726 101.365 25.2564 101.757 25.2564C101.85 25.2564 101.959 25.2048 101.998 25.1417C102.037 25.0786 102.176 25.027 102.307 25.027C102.528 25.027 102.541 25.074 102.48 25.6656C102.444 26.0168 102.366 26.3652 102.307 26.4396C102.248 26.5142 102.132 27.0819 102.049 27.7014C101.93 28.5866 101.926 28.9368 102.034 29.3371C102.108 29.6172 102.17 29.9906 102.17 30.1668C102.17 30.3431 102.246 30.5874 102.338 30.7099C102.431 30.8322 102.508 31.0266 102.51 31.1417C102.514 31.3622 103.503 32.9692 103.675 33.0347C103.73 33.0558 103.775 33.1332 103.776 33.2067C103.776 33.2803 103.956 33.4623 104.174 33.6112C104.393 33.7601 104.693 33.9946 104.842 34.1324C105.104 34.3756 105.939 34.8085 106.757 35.1251C106.997 35.2182 107.767 35.2963 108.678 35.32C109.913 35.3523 110.245 35.3262 110.452 35.1814C110.592 35.0834 110.791 35.0032 110.895 35.0032C111.101 35.0032 111.85 34.6731 112.49 34.3006C112.971 34.0206 114.386 32.6542 114.612 32.2512C115.651 30.3979 115.858 29.6548 115.858 27.7791C115.859 26.2732 115.604 24.6641 115.34 24.5009C115.286 24.4676 115.242 24.3206 115.242 24.1742C115.242 24.028 115.165 23.8442 115.07 23.7657C114.975 23.6871 114.898 23.5323 114.898 23.4217C114.898 23.311 114.821 23.1562 114.726 23.0777C114.631 22.9991 114.554 22.8874 114.554 22.8294C114.554 22.4861 113.159 20.9554 112.413 20.4804C112.235 20.3667 112.063 20.2466 112.031 20.2136C111.898 20.0749 111.195 19.752 111.019 19.7486C110.913 19.7467 110.727 19.6693 110.605 19.5766C110.482 19.4835 110.139 19.4083 109.838 19.4083C109.539 19.4083 109.175 19.3684 109.029 19.3197C108.883 19.271 108.247 19.2738 107.617 19.3258ZM132.156 19.7538C131.238 19.8614 130.09 20.117 129.966 20.2414C129.919 20.2878 129.765 20.3256 129.623 20.3256C129.481 20.3256 129.219 20.4 129.04 20.4911C128.862 20.582 128.509 20.7522 128.257 20.8693C126.699 21.592 125.538 22.7475 124.828 24.2817C124.653 24.6601 124.437 25.1158 124.348 25.2943C124.259 25.4729 124.185 25.7051 124.184 25.8103C124.184 25.9156 124.108 26.2081 124.017 26.4604C123.775 27.1327 123.801 27.9655 124.082 28.5455C124.213 28.8177 124.39 29.0404 124.475 29.0404C124.636 29.0404 124.989 28.4327 124.989 28.1556C124.989 27.9259 125.347 26.8255 125.464 26.6955C125.518 26.6355 125.562 26.4741 125.562 26.3368C125.562 26.1995 125.64 26.0229 125.734 25.9444C125.829 25.8658 125.906 25.711 125.906 25.6004C125.906 25.4897 125.984 25.3349 126.078 25.2564C126.173 25.1778 126.25 25.0644 126.25 25.0043C126.25 24.8105 127.284 23.5439 127.707 23.2199C127.933 23.047 128.214 22.8145 128.332 22.7032C128.65 22.404 129.772 21.8654 130.493 21.6663C131.475 21.3951 133.172 21.2034 133.901 21.2811C135.347 21.4351 136.144 21.5739 136.263 21.6922C136.331 21.7605 136.48 21.8163 136.595 21.8163C136.784 21.8163 137.005 21.9061 137.488 22.1784C137.582 22.2319 137.782 22.3282 137.932 22.3926C138.272 22.5387 139.552 23.8341 139.552 24.0323C139.552 24.1127 139.612 24.2388 139.686 24.3124C140.049 24.676 140.469 26.4683 140.469 27.6574C140.469 28.6139 140.296 29.711 140.056 30.277C139.968 30.4841 139.896 30.7381 139.896 30.8413C139.896 31.0382 139.224 32.4962 139.088 32.5952C139.045 32.6267 138.971 32.7769 138.923 32.9288C138.82 33.2579 136.29 35.8059 136.066 35.8059C135.98 35.8059 135.85 35.8786 135.776 35.9673C135.703 36.0561 135.477 36.2132 135.275 36.3164C135.073 36.4197 134.753 36.6027 134.564 36.7232C134.234 36.9335 133.723 37.1953 133.36 37.341C133.265 37.3788 133.11 37.453 133.016 37.5058C132.518 37.7838 132.063 37.9846 131.931 37.9846C131.849 37.9846 131.717 38.0637 131.636 38.1604C131.556 38.2572 131.434 38.3168 131.364 38.2932C131.254 38.2554 130.782 38.4467 130.122 38.7964C130.012 38.8545 129.849 38.9019 129.758 38.9019C129.668 38.9019 129.422 38.9883 129.212 39.0939C129.002 39.1994 128.688 39.3572 128.515 39.4443C128.341 39.5316 128.2 39.575 128.2 39.541C128.2 39.4761 127.944 39.5935 126.405 40.3663C125.117 41.0125 125.05 41.0535 124.074 41.7842C122.709 42.8069 121.567 44.0866 120.665 45.6057C120.588 45.7342 120.495 45.9168 120.458 46.0114C120.421 46.106 120.316 46.3295 120.224 46.508C120.133 46.6866 120.058 46.9286 120.058 47.0459C120.058 47.1632 120.011 47.2883 119.953 47.3239C119.896 47.3596 119.813 47.6077 119.768 47.8753C119.724 48.1431 119.631 48.4323 119.562 48.5179C119.482 48.6172 119.434 49.3872 119.432 50.6393C119.428 52.2546 119.466 52.7274 119.644 53.2929C120.112 54.7816 120.893 56.0558 121.86 56.9096C122.107 57.1278 122.486 57.4611 122.703 57.6503C123.151 58.0421 125.398 59.1975 125.713 59.1979C125.828 59.1982 126.034 59.259 126.172 59.3331C126.944 59.7488 130.492 59.7682 131.462 59.362C133.837 58.3667 135.181 57.226 136.856 54.7835C137.158 54.3421 137.478 53.8261 137.566 53.6369C137.654 53.4477 137.878 53.0606 138.063 52.7768C138.249 52.493 138.437 52.1834 138.48 52.0888C138.523 51.9942 138.795 51.5927 139.084 51.1965C139.615 50.4679 139.999 50.2364 140.284 50.4728C140.536 50.6814 140.729 51.5626 140.656 52.1656C140.33 54.8458 140.338 56.2932 140.681 56.9917C140.735 57.1016 140.872 57.3842 140.985 57.6198C141.274 58.2205 142.135 59.2082 142.631 59.5082C143.299 59.9118 144.382 60.4147 144.941 60.5805C145.703 60.8065 148.839 60.7869 149.585 60.5515C150.533 60.2523 151.387 59.8118 151.993 59.3085C152.56 58.8379 153.541 57.7329 153.541 57.5651C153.541 57.422 153.335 57.4671 153.283 57.6216C153.205 57.8576 151.004 57.8891 150.547 57.6609C150.345 57.5605 150.047 57.4767 149.883 57.4746C149.719 57.4726 149.485 57.3952 149.363 57.3026C149.24 57.21 149.057 57.1343 148.956 57.1343C148.79 57.1343 148.207 56.5918 147.816 56.0733C147.424 55.5524 147.391 54.7019 147.49 47.6741C147.659 35.7596 147.568 32.2716 147.021 29.6138C146.822 28.6436 146.073 26.8792 145.363 25.7038C144.625 24.4842 142.345 22.2299 141.538 21.9232C141.392 21.8676 141.272 21.7691 141.272 21.7045C141.272 21.6398 141.172 21.587 141.049 21.587C140.927 21.587 140.796 21.5367 140.758 21.4754C140.72 21.4139 140.497 21.2794 140.264 21.1763C140.03 21.0731 139.658 20.9092 139.437 20.8118C139.216 20.7145 138.899 20.5653 138.731 20.4802C138.564 20.3952 138.296 20.3256 138.136 20.3256C137.976 20.3256 137.813 20.274 137.774 20.2109C137.735 20.1479 137.565 20.0957 137.395 20.095C137.225 20.0943 136.843 20.0199 136.545 19.9294C135.886 19.7296 133.258 19.6244 132.156 19.7538ZM55.8841 37.0285C55.6009 37.3336 55.205 37.7854 55.0044 38.0326C54.8038 38.2797 54.3815 38.77 54.066 39.122C53.7506 39.4739 53.2902 40.0102 53.0431 40.3137C52.3728 41.1366 48.8357 44.1767 48.5485 44.1767C48.5048 44.1767 48.3 44.3057 48.0933 44.4634C47.8865 44.621 47.6624 44.75 47.5952 44.75C47.5279 44.75 47.4726 44.7887 47.4722 44.836C47.4719 44.8834 47.1842 45.1284 46.8331 45.3807C45.7311 46.1723 44.8401 47.6723 44.8367 48.7419C44.836 48.9507 44.9634 49.3893 45.1199 49.7166C45.4438 50.3938 45.9521 50.7798 46.8223 51.0093C47.5515 51.2018 48.4333 51.017 49.9382 50.3567C50.4997 50.1102 51.8494 49.0646 52.4036 48.4465C53.1907 47.5687 53.7796 46.8418 53.7796 46.7481C53.7796 46.7017 53.8967 46.504 54.0399 46.3088C54.183 46.1137 54.4182 45.7102 54.5625 45.412C54.7069 45.1139 54.8736 44.8399 54.933 44.8032C54.9923 44.7666 55.0409 44.6427 55.0409 44.5279C55.0409 44.4133 55.1184 44.2552 55.213 44.1767C55.3076 44.0981 55.385 43.9216 55.385 43.7843C55.385 43.6469 55.4281 43.4855 55.4807 43.4256C55.5333 43.3656 55.6556 43.0845 55.7522 42.8007C56.7423 39.8958 57.188 36.6238 56.6087 36.5135C56.4743 36.4879 56.2142 36.6729 55.8841 37.0285ZM139.466 37.4782C139.261 37.6397 139.093 37.8153 139.093 37.8685C139.093 37.9217 138.857 38.2147 138.568 38.5196C138.279 38.8245 137.666 39.5383 137.205 40.106C136.213 41.326 134.639 42.8528 133.36 43.8359C133.076 44.0539 132.826 44.2714 132.805 44.3192C132.784 44.3669 132.72 44.406 132.662 44.406C132.576 44.406 131.443 45.1773 131.002 45.537C130.935 45.5917 130.754 45.7036 130.6 45.7858C130.187 46.0069 129.01 47.1552 128.724 47.6168C128.488 47.9967 128.287 48.5629 128.149 49.2369C128.005 49.9434 128.7 51.2105 129.452 51.6123C129.834 51.8159 130.995 51.8796 131.582 51.729C131.835 51.6643 132.181 51.5842 132.353 51.551C132.524 51.5178 132.724 51.4187 132.797 51.331C132.869 51.2433 133.003 51.1715 133.092 51.1715C133.376 51.1715 134.528 50.3666 135.289 49.6373C135.915 49.0369 137.373 47.1935 137.373 47.002C137.373 46.9673 137.507 46.7431 137.67 46.5038C137.833 46.2645 138.117 45.7333 138.302 45.3234C138.486 44.9134 138.714 44.4319 138.808 44.2534C138.902 44.0749 138.978 43.834 138.978 43.718C138.978 43.6021 139.051 43.3612 139.139 43.1826C139.362 42.7312 139.552 42.0878 139.552 41.7816C139.552 41.6401 139.605 41.4255 139.669 41.3046C139.918 40.8398 140.272 37.544 140.097 37.3252C139.94 37.1297 139.893 37.1411 139.466 37.4782Z" fill="#298028"/>
<path d="M9.56304 76V69.0475H11.033V71.9161H14.017V69.0475H15.4836V76H14.017V73.128H11.033V76H9.56304ZM18.3207 76V69.0475H23.0055V70.2594H19.7906V71.9161H22.7645V73.128H19.7906V74.7881H23.0191V76H18.3207ZM26.9977 76H25.4225L27.8226 69.0475H29.7169L32.1136 76H30.5385L28.7969 70.6362H28.7426L26.9977 76ZM26.8992 73.2672H30.6199V74.4146H26.8992V73.2672ZM34.5756 76V69.0475H36.0456V74.7881H39.0262V76H34.5756ZM40.4918 70.2594V69.0475H46.2018V70.2594H44.0733V76H42.6203V70.2594H40.4918ZM48.7674 76V69.0475H50.2373V71.9161H53.2213V69.0475H54.6879V76H53.2213V73.128H50.2373V76H48.7674ZM67.4971 71.4815H66.0102C65.983 71.2892 65.9276 71.1183 65.8438 70.9689C65.7601 70.8173 65.6526 70.6883 65.5213 70.5819C65.3901 70.4755 65.2384 70.3941 65.0664 70.3375C64.8967 70.2809 64.7122 70.2526 64.5131 70.2526C64.1532 70.2526 63.8398 70.342 63.5727 70.5208C63.3057 70.6973 63.0986 70.9553 62.9515 71.2948C62.8044 71.632 62.7308 72.0417 62.7308 72.5237C62.7308 73.0194 62.8044 73.4358 62.9515 73.773C63.1008 74.1102 63.3091 74.3648 63.5761 74.5368C63.8432 74.7088 64.1521 74.7948 64.5029 74.7948C64.6998 74.7948 64.882 74.7688 65.0495 74.7168C65.2192 74.6647 65.3697 74.5889 65.501 74.4893C65.6322 74.3875 65.7409 74.2641 65.8269 74.1193C65.9151 73.9744 65.9762 73.8092 66.0102 73.6236L67.4971 73.6304C67.4586 73.9495 67.3624 74.2573 67.2086 74.5538C67.0569 74.848 66.8521 75.1117 66.5941 75.3448C66.3384 75.5757 66.0328 75.759 65.6775 75.8948C65.3244 76.0283 64.925 76.0951 64.4791 76.0951C63.859 76.0951 63.3045 75.9547 62.8157 75.6741C62.3291 75.3935 61.9444 74.9872 61.6615 74.4554C61.3808 73.9235 61.2405 73.2796 61.2405 72.5237C61.2405 71.7656 61.3831 71.1205 61.6682 70.5887C61.9534 70.0568 62.3404 69.6517 62.8293 69.3734C63.3181 69.0927 63.8681 68.9524 64.4791 68.9524C64.882 68.9524 65.2554 69.009 65.5994 69.1221C65.9457 69.2353 66.2523 69.4005 66.5194 69.6178C66.7865 69.8328 67.0037 70.0964 67.1712 70.4088C67.3409 70.7211 67.4496 71.0787 67.4971 71.4815ZM76.5654 72.5237C76.5654 73.2819 76.4216 73.9269 76.1342 74.4588C75.8491 74.9906 75.4598 75.3969 74.9664 75.6775C74.4753 75.9559 73.9231 76.0951 73.3097 76.0951C72.6919 76.0951 72.1374 75.9547 71.6463 75.6741C71.1552 75.3935 70.767 74.9872 70.4819 74.4554C70.1967 73.9235 70.0541 73.2796 70.0541 72.5237C70.0541 71.7656 70.1967 71.1205 70.4819 70.5887C70.767 70.0568 71.1552 69.6517 71.6463 69.3734C72.1374 69.0927 72.6919 68.9524 73.3097 68.9524C73.9231 68.9524 74.4753 69.0927 74.9664 69.3734C75.4598 69.6517 75.8491 70.0568 76.1342 70.5887C76.4216 71.1205 76.5654 71.7656 76.5654 72.5237ZM75.075 72.5237C75.075 72.0326 75.0015 71.6184 74.8544 71.2812C74.7095 70.944 74.5047 70.6883 74.2399 70.514C73.9751 70.3397 73.6651 70.2526 73.3097 70.2526C72.9544 70.2526 72.6444 70.3397 72.3796 70.514C72.1148 70.6883 71.9088 70.944 71.7617 71.2812C71.6169 71.6184 71.5445 72.0326 71.5445 72.5237C71.5445 73.0148 71.6169 73.429 71.7617 73.7662C71.9088 74.1034 72.1148 74.3592 72.3796 74.5334C72.6444 74.7077 72.9544 74.7948 73.3097 74.7948C73.6651 74.7948 73.9751 74.7077 74.2399 74.5334C74.5047 74.3592 74.7095 74.1034 74.8544 73.7662C75.0015 73.429 75.075 73.0148 75.075 72.5237ZM85.0947 69.0475V76H83.825L80.8003 71.6241H80.7493V76H79.2794V69.0475H80.5694L83.5704 73.42H83.6315V69.0475H85.0947ZM91.706 71.047C91.6788 70.7731 91.5622 70.5604 91.3563 70.4088C91.1503 70.2571 90.8708 70.1813 90.5178 70.1813C90.2779 70.1813 90.0753 70.2153 89.9101 70.2832C89.7449 70.3488 89.6182 70.4405 89.5299 70.5581C89.4439 70.6758 89.4009 70.8094 89.4009 70.9587C89.3964 71.0832 89.4224 71.1918 89.479 71.2846C89.5378 71.3774 89.6182 71.4578 89.72 71.5257C89.8218 71.5913 89.9395 71.649 90.0731 71.6988C90.2066 71.7463 90.3492 71.7871 90.5008 71.821L91.1254 71.9704C91.4287 72.0383 91.7071 72.1288 91.9606 72.242C92.214 72.3551 92.4336 72.4943 92.6192 72.6595C92.8047 72.8247 92.9485 73.0194 93.0503 73.2434C93.1544 73.4675 93.2076 73.7244 93.2099 74.014C93.2076 74.4395 93.099 74.8084 92.884 75.1207C92.6712 75.4308 92.3634 75.6718 91.9606 75.8438C91.56 76.0136 91.0768 76.0984 90.511 76.0984C89.9497 76.0984 89.4609 76.0124 89.0444 75.8404C88.6303 75.6684 88.3066 75.4138 88.0735 75.0766C87.8427 74.7371 87.7216 74.3173 87.7103 73.8171H89.1327C89.1485 74.0503 89.2153 74.2449 89.333 74.4011C89.4529 74.5549 89.6125 74.6715 89.8117 74.7507C90.0131 74.8277 90.2405 74.8661 90.494 74.8661C90.743 74.8661 90.9591 74.8299 91.1424 74.7575C91.328 74.6851 91.4717 74.5844 91.5736 74.4554C91.6754 74.3264 91.7263 74.1781 91.7263 74.0106C91.7263 73.8545 91.6799 73.7232 91.5871 73.6169C91.4966 73.5105 91.3631 73.42 91.1866 73.3453C91.0123 73.2706 90.7984 73.2027 90.5449 73.1416L89.7879 72.9515C89.2017 72.8089 88.7389 72.586 88.3994 72.2827C88.0599 71.9794 87.8913 71.5709 87.8936 71.0572C87.8913 70.6362 88.0034 70.2684 88.2297 69.9539C88.4583 69.6393 88.7717 69.3937 89.17 69.2172C89.5684 69.0407 90.021 68.9524 90.528 68.9524C91.044 68.9524 91.4943 69.0407 91.8791 69.2172C92.2661 69.3937 92.5671 69.6393 92.7821 69.9539C92.9971 70.2684 93.108 70.6328 93.1148 71.047H91.706ZM100.118 69.0475H101.588V73.5625C101.588 74.0695 101.467 74.5131 101.225 74.8933C100.985 75.2735 100.649 75.57 100.217 75.7827C99.7843 75.9932 99.2808 76.0984 98.7059 76.0984C98.1288 76.0984 97.6241 75.9932 97.1918 75.7827C96.7596 75.57 96.4235 75.2735 96.1836 74.8933C95.9437 74.5131 95.8237 74.0695 95.8237 73.5625V69.0475H97.2937V73.4369C97.2937 73.7017 97.3514 73.9371 97.4668 74.143C97.5845 74.349 97.7497 74.5108 97.9625 74.6285C98.1752 74.7462 98.423 74.805 98.7059 74.805C98.9911 74.805 99.2389 74.7462 99.4494 74.6285C99.6621 74.5108 99.8262 74.349 99.9416 74.143C100.059 73.9371 100.118 73.7017 100.118 73.4369V69.0475ZM104.423 76V69.0475H105.893V74.7881H108.873V76H104.423ZM110.339 70.2594V69.0475H116.049V70.2594H113.92V76H112.467V70.2594H110.339ZM118.963 76H117.388L119.788 69.0475H121.682L124.079 76H122.504L120.762 70.6362H120.708L118.963 76ZM118.865 73.2672H122.585V74.4146H118.865V73.2672ZM125.427 70.2594V69.0475H131.137V70.2594H129.008V76H127.555V70.2594H125.427ZM135.172 69.0475V76H133.702V69.0475H135.172ZM144.396 72.5237C144.396 73.2819 144.252 73.9269 143.965 74.4588C143.68 74.9906 143.29 75.3969 142.797 75.6775C142.306 75.9559 141.754 76.0951 141.14 76.0951C140.522 76.0951 139.968 75.9547 139.477 75.6741C138.986 75.3935 138.598 74.9872 138.312 74.4554C138.027 73.9235 137.885 73.2796 137.885 72.5237C137.885 71.7656 138.027 71.1205 138.312 70.5887C138.598 70.0568 138.986 69.6517 139.477 69.3734C139.968 69.0927 140.522 68.9524 141.14 68.9524C141.754 68.9524 142.306 69.0927 142.797 69.3734C143.29 69.6517 143.68 70.0568 143.965 70.5887C144.252 71.1205 144.396 71.7656 144.396 72.5237ZM142.906 72.5237C142.906 72.0326 142.832 71.6184 142.685 71.2812C142.54 70.944 142.335 70.6883 142.07 70.514C141.806 70.3397 141.496 70.2526 141.14 70.2526C140.785 70.2526 140.475 70.3397 140.21 70.514C139.945 70.6883 139.739 70.944 139.592 71.2812C139.447 71.6184 139.375 72.0326 139.375 72.5237C139.375 73.0148 139.447 73.429 139.592 73.7662C139.739 74.1034 139.945 74.3592 140.21 74.5334C140.475 74.7077 140.785 74.7948 141.14 74.7948C141.496 74.7948 141.806 74.7077 142.07 74.5334C142.335 74.3592 142.54 74.1034 142.685 73.7662C142.832 73.429 142.906 73.0148 142.906 72.5237ZM152.925 69.0475V76H151.656L148.631 71.6241H148.58V76H147.11V69.0475H148.4L151.401 73.42H151.462V69.0475H152.925Z" fill="#1A3E1F"/>
</g>
<defs>
<clipPath id="clip0_222_37">
<rect width="154" height="76.2547" fill="white" transform="translate(0 0.144043)"/>
</clipPath>
</defs>
</svg>
