<svg width="154" height="77" viewBox="0 0 154 77" fill="none" xmlns="http://www.w3.org/2000/svg">
<g clip-path="url(#clip0_222_37)">
<path fill-rule="evenodd" clip-rule="evenodd" d="M1.51935 0.428139C1.07169 0.466882 0.805654 0.685739 1.20631 0.685739C1.7097 0.685739 3.32836 2.04563 5.02535 3.8942C6.92862 5.96757 7.96763 7.7406 8.63684 10.0572C9.05446 11.5024 9.16397 11.9579 9.15927 12.2286C9.1564 12.3857 9.21649 12.7715 9.29263 13.0857C9.39801 13.5204 9.42541 17.3649 9.40741 29.1407C9.39434 37.6567 9.35948 44.6631 9.33001 44.7108C9.18587 44.9431 9.39434 50.1224 9.55797 50.3779C9.6106 50.46 9.69477 50.7943 9.74499 51.1207C9.83386 51.6984 9.96791 52.1364 10.2818 52.8744C10.3659 53.0725 10.4386 53.3039 10.4432 53.3887C10.4478 53.4735 10.5496 53.6972 10.6693 53.8857C10.7891 54.0743 10.9878 54.4086 11.1109 54.6286C11.6109 55.5219 14.1315 57.6 14.715 57.6C14.7965 57.6 14.9632 57.6756 15.0857 57.7678C15.208 57.8601 15.4269 57.9373 15.572 57.9392C15.7169 57.9413 16.0007 58.0302 16.2027 58.1368C16.7437 58.4228 20.9764 58.4213 21.5233 58.135C21.7252 58.0293 22.012 57.9429 22.1607 57.9429C22.3095 57.9429 22.5314 57.8673 22.6538 57.7751C22.7762 57.6828 22.9895 57.6056 23.1276 57.6037C23.2658 57.6016 23.4093 57.5511 23.4463 57.4912C23.4834 57.4315 23.8348 57.2233 24.2271 57.0288C25.7392 56.279 27.0803 54.9356 27.7637 53.4857C28.3769 52.1846 28.4195 52.0681 28.4932 51.4857C28.533 51.1715 28.5919 50.8243 28.624 50.7143C28.7128 50.411 28.3369 50.464 28.2185 50.7715C27.9864 51.3737 25.6239 53.2956 24.4806 53.812C23.3054 54.343 23.1607 54.3781 21.7419 54.4769C20.0116 54.5975 18.6623 53.9283 17.5539 52.4C17.1126 51.7916 17.0089 51.5872 16.6842 50.6857C16.4991 50.1721 16.4664 49.3565 16.361 42.6286C16.2005 32.3886 16.202 30.9633 16.3742 29.7715C16.5099 28.832 16.7451 27.8419 16.9714 27.2572C17.1802 26.7174 17.8421 25.4571 17.974 25.348C18.053 25.2827 18.1176 25.176 18.1176 25.1111C18.1176 25.0462 18.2466 24.8245 18.4043 24.6184C18.562 24.4124 18.691 24.2014 18.691 24.1495C18.691 23.9209 20.6253 21.8846 21.5429 21.1473C22.4654 20.4062 23.6407 19.7715 24.0907 19.7715C24.4331 19.7715 24.6314 19.6027 24.3951 19.5123C24.2078 19.4407 21.4796 19.62 20.5257 19.7667C19.2436 19.9636 17.8335 19.9181 17.3585 19.6645C16.5928 19.2553 16.3562 18.7991 16.2293 17.4857C16.1898 17.0772 16.08 16.112 15.9854 15.3409C15.8907 14.5697 15.84 13.8957 15.8728 13.8429C15.9055 13.7901 15.879 13.5724 15.8137 13.3591C15.7486 13.146 15.6538 12.7143 15.6031 12.4C15.228 10.0729 14.0902 7.65785 12.5803 5.98368C11.7605 5.07477 10.1149 3.54837 9.95082 3.54471C9.8639 3.54277 8.81343 2.85043 8.71481 2.72997C8.68328 2.69157 8.34787 2.50494 7.96946 2.31557C7.59106 2.12608 7.12665 1.88791 6.93745 1.7862C6.74824 1.6846 6.52819 1.60117 6.4485 1.60071C6.3688 1.60037 6.214 1.55488 6.10449 1.49968C5.58355 1.23717 5.01755 1.0286 4.82617 1.0286C4.70989 1.0286 4.42551 0.949854 4.19434 0.853511C3.96317 0.757282 3.7367 0.701396 3.69118 0.729396C3.64565 0.757511 3.32871 0.708139 2.98677 0.619682C2.08272 0.385968 2.05268 0.382082 1.51935 0.428139ZM48.6195 18.7976C48.1465 18.8769 47.7223 18.9207 47.6768 18.8949C47.6314 18.8691 47.4405 18.9271 47.2525 19.0239C47.0646 19.1208 46.7921 19.2016 46.6472 19.2037C46.5021 19.2056 46.2832 19.2828 46.1609 19.3751C46.0384 19.4673 45.8578 19.5429 45.7596 19.5429C45.4681 19.5428 44.1892 20.2412 43.5148 20.7687C42.508 21.5563 41.5807 22.8884 41.0665 24.2857C40.828 24.9341 40.5586 26.1149 40.5582 26.5143C40.5574 27.1044 41.0047 28.1143 41.2667 28.1143C41.3564 28.1143 41.524 27.6959 41.793 26.8C41.9062 26.4229 42.0695 25.9523 42.1559 25.7542C42.2421 25.5561 42.3127 25.3407 42.3127 25.2755C42.3127 25.1415 42.9174 24.0055 43.2653 23.4857C43.8026 22.6829 44.9718 21.6389 45.8675 21.162C46.2144 20.9772 47.089 20.6734 47.411 20.6257C47.5396 20.6068 47.8251 20.5353 48.0454 20.467C48.6773 20.2712 51.7511 20.3069 52.2529 20.5158C52.4812 20.6109 52.6894 20.6675 52.7156 20.6414C52.7734 20.5838 53.8288 20.9478 54.275 21.1792C55.4765 21.8024 56.6416 23.3183 56.9263 24.6286C56.9673 24.8172 57.0557 25.2286 57.1229 25.5429C57.2629 26.1983 57.1866 27.4913 56.9442 28.5715C56.6774 29.7609 56.5936 30.0081 56.092 31.0857C55.8212 31.6676 55.0964 32.6528 54.4235 33.354C53.883 33.9171 52.4643 35.047 52.0596 35.2367C51.965 35.2811 51.6296 35.4699 51.3142 35.6564C50.9989 35.8428 50.5087 36.1032 50.2249 36.2351C49.9411 36.367 49.5719 36.548 49.4045 36.6374C49.2371 36.7269 49.0241 36.8 48.9312 36.8C48.8383 36.8 48.6981 36.8772 48.6195 36.9715C48.541 37.0657 48.3792 37.1429 48.2599 37.1429C48.1407 37.1429 47.9534 37.1918 47.8439 37.2517C47.6395 37.3632 47.2306 37.5333 46.3261 37.8825C46.0423 37.9921 45.6695 38.1556 45.4976 38.2457C45.3258 38.3358 45.1452 38.4144 45.0963 38.4203C44.8376 38.4513 43.0785 39.2895 42.2554 39.774C41.9401 39.9595 41.6047 40.1457 41.5101 40.1879C41.2962 40.2832 39.8625 41.4293 39.4086 41.8677C39.2238 42.0464 38.8912 42.4292 38.6698 42.7183C38.4484 43.0073 38.1777 43.3398 38.0682 43.4568C37.6997 43.8511 36.6558 46.0869 36.3738 47.0857C36.0988 48.0598 36.0509 51.1907 36.2985 52C36.7543 53.4904 37.1228 54.1739 38.1363 55.408C38.7778 56.1892 41.511 57.9429 42.0869 57.9429C42.1871 57.9429 42.369 58.0184 42.4915 58.1107C42.6138 58.203 42.8431 58.2807 43.0007 58.2833C43.1584 58.286 43.5251 58.3601 43.8156 58.448C44.4668 58.6449 47.0615 58.6264 47.4366 58.4222C47.5744 58.3471 47.7986 58.2857 47.9349 58.2857C48.0713 58.2857 48.3198 58.2145 48.4872 58.1276C48.6546 58.0406 48.9979 57.8734 49.2502 57.7561C49.5025 57.6389 49.8685 57.4272 50.0636 57.2857C50.2588 57.1444 50.4599 57.0286 50.5105 57.0286C50.5611 57.0286 51.0624 56.5785 51.6244 56.0286C52.5825 55.0911 53.6999 53.5885 54.3651 52.3432C54.5161 52.0605 54.6718 51.8033 54.7113 51.7718C54.7506 51.7401 54.8843 51.5246 55.0083 51.2928C55.3362 50.6798 56.1964 49.5353 56.4459 49.38C56.8188 49.1478 57.0865 49.3395 57.2756 49.9737C57.4556 50.5783 57.4469 50.7446 57.1044 53.227C56.8787 54.8622 57.5004 56.6014 58.7346 57.7886C59.4607 58.4869 60.5956 59.2 60.9808 59.2C61.0914 59.2 61.3097 59.2901 61.4655 59.4C61.711 59.5732 62.0347 59.6 63.8741 59.6C65.679 59.6 66.0762 59.5683 66.5115 59.3889C67.8437 58.84 68.3273 58.5303 69.2312 57.6464C70.1454 56.7526 70.4015 56.3573 69.9765 56.496C68.9605 56.8277 68.7956 56.846 68.1418 56.6998C67.7793 56.6187 67.3712 56.536 67.2352 56.516C66.4824 56.4053 65.5595 56.0022 65.0644 55.5678C64.2465 54.8502 64.1335 54.2494 64.2422 51.2C64.3488 48.2099 64.2968 31.5305 64.179 30.9715C64.1328 30.7515 64.0459 30.2372 63.986 29.8286C63.8703 29.0397 63.6734 28.2056 63.5138 27.8286C63.4605 27.7029 63.3392 27.364 63.2441 27.0756C63.0571 26.5081 62.6863 25.6763 62.4622 25.3214C61.1529 23.2472 59.6944 21.7501 58.0023 20.7429C57.4215 20.3972 55.6701 19.5429 55.5423 19.5429C55.4601 19.5429 55.2233 19.4717 55.0162 19.3846C54.5478 19.1877 53.7352 18.9764 53.2062 18.9139C52.9855 18.8878 52.4437 18.814 52.0022 18.7497C50.9628 18.5987 49.6977 18.6166 48.6195 18.7976ZM78.7831 18.9381C78.7863 18.9879 79.2784 19.26 79.8766 19.5429C81.1065 20.1244 82.1603 21.0375 82.4633 21.7843C82.8598 22.7615 82.9214 23.0983 83.025 24.8572C83.1634 27.2047 83.2771 27.7897 83.8102 28.8981C84.4187 30.1632 86.3645 30.6104 87.9509 29.8499C88.5448 29.5651 89.6887 28.6345 90.2524 27.9774C90.5246 27.6603 90.8124 27.3358 90.892 27.2565C91.0868 27.0623 91.4764 26.4152 91.6314 26.0286C91.7006 25.8558 91.8039 25.7143 91.8608 25.7143C91.9177 25.7143 91.9643 25.6177 91.9643 25.4997C91.9643 25.3817 92.0417 25.2212 92.1363 25.1429C92.2309 25.0646 92.3083 24.9291 92.3083 24.8416C92.3083 24.7542 92.3546 24.5933 92.4111 24.4841C92.5641 24.1892 92.8275 23.4528 93.034 22.7429C93.3613 21.6179 93.5036 19.3825 93.2608 19.1817C93.184 19.1182 92.0522 19.0487 90.6808 19.0233C83.5874 18.892 78.778 18.8575 78.7831 18.9381ZM107.617 19.1179C106.51 19.2088 105.717 19.3825 104.75 19.7453C104.21 19.948 103.103 20.439 102.858 20.5849C102.763 20.6412 102.608 20.7217 102.514 20.7639C102.231 20.8903 100.308 22.076 99.8764 22.3908C98.5062 23.3889 96.2792 25.4943 95.2727 26.7429C95.0446 27.0257 94.7295 27.3943 94.5723 27.5619C94.2917 27.8609 92.5908 30.1467 92.3656 30.5273C92.3025 30.6339 91.9419 31.176 91.5643 31.732C90.9067 32.7001 90.5017 33.3728 90.2572 33.9032C90.1948 34.0385 90.089 34.183 90.022 34.2243C89.955 34.2655 89.9002 34.3927 89.9002 34.5071C89.9002 34.6214 89.8275 34.775 89.7388 34.8485C89.65 34.9219 89.4937 35.1468 89.3916 35.3481C88.7514 36.6103 86.7888 38.9715 86.3798 38.9715C86.2962 38.9715 86.1381 39.0152 86.0285 39.0688C85.919 39.1223 85.5715 39.2843 85.2561 39.4286C84.9408 39.5729 84.5932 39.7349 84.4837 39.7884C84.3742 39.842 84.2076 39.8857 84.1136 39.8857C83.9654 39.8857 83.9436 40.3845 83.9501 43.6286C83.9548 46.0123 83.91 47.5997 83.8269 48C83.755 48.3457 83.6508 48.86 83.595 49.1429C83.3567 50.3545 83.2406 50.7974 83.1337 50.9039C83.0713 50.9662 83.0201 51.1549 83.0201 51.3232C83.0201 51.4915 82.9427 51.6932 82.8481 51.7715C82.7535 51.8497 82.6761 51.9764 82.6761 52.0529C82.6761 52.1744 82.1448 53.2596 81.8161 53.8095C80.8627 55.4043 78.6418 57.5172 77.4013 58.0096C77.3067 58.0471 77.1261 58.12 77 58.1715C76.8739 58.2229 76.6717 58.2971 76.5508 58.3363C76.4223 58.378 76.3746 58.4479 76.4362 58.5048C76.494 58.5583 81.0692 58.6272 86.6035 58.6579C95.8299 58.7089 96.6657 58.6982 96.6657 58.5283C96.6657 58.4263 96.4878 58.2015 96.2705 58.0287C95.8654 57.7065 94.8693 57.1429 94.7049 57.1429C94.6545 57.1429 94.3193 56.9665 93.9603 56.7509C93.2225 56.308 92.4538 55.6214 92.2984 55.2665C92.2411 55.1357 92.1481 54.9515 92.0918 54.8572C91.626 54.0767 91.2116 52.6519 91.0447 51.2572C90.9921 50.8172 90.9066 50.1229 90.8546 49.7143C90.7575 48.9497 90.7245 44.8896 90.8062 43.7715C90.8316 43.4257 90.8913 43.0915 90.939 43.0286C90.9867 42.9657 91.0517 42.58 91.0834 42.1715C91.1548 41.2512 91.3397 40.1752 91.4594 39.9821C91.5089 39.9023 91.5856 39.6294 91.6299 39.3757C91.7067 38.9353 91.7826 38.6921 92.1663 37.6572C92.4515 36.8878 92.5524 36.6415 92.7203 36.3051C92.809 36.1271 92.8816 35.9148 92.8816 35.8333C92.8816 35.7518 92.959 35.6212 93.0536 35.5429C93.1482 35.4646 93.2256 35.3307 93.2256 35.2452C93.2256 35.1597 93.432 34.7536 93.6843 34.3429C93.9366 33.9321 94.143 33.5685 94.143 33.5348C94.143 33.5012 94.4268 33.0911 94.7736 32.6236C95.1205 32.1561 95.4043 31.7404 95.4043 31.6996C95.4043 31.6395 96.5707 30.1503 96.7802 29.9429C96.9009 29.8235 98.2456 28.2705 98.5101 27.9451C99.5716 26.6395 101.365 25.0286 101.757 25.0286C101.85 25.0286 101.959 24.9772 101.998 24.9143C102.037 24.8515 102.176 24.8 102.307 24.8C102.528 24.8 102.541 24.8469 102.48 25.4365C102.444 25.7865 102.366 26.1337 102.307 26.2079C102.248 26.2822 102.132 26.848 102.049 27.4655C101.93 28.3477 101.926 28.6967 102.034 29.0957C102.108 29.3749 102.17 29.747 102.17 29.9227C102.17 30.0983 102.246 30.3419 102.338 30.4639C102.431 30.5859 102.508 30.7796 102.51 30.8943C102.514 31.1141 103.503 32.7157 103.675 32.7809C103.73 32.802 103.775 32.8791 103.776 32.9524C103.776 33.0257 103.956 33.2071 104.174 33.3556C104.393 33.5039 104.693 33.7376 104.842 33.875C105.104 34.1174 105.939 34.5488 106.757 34.8644C106.997 34.9572 107.767 35.035 108.678 35.0587C109.913 35.0908 110.245 35.0648 110.452 34.9205C110.592 34.8228 110.791 34.7429 110.895 34.7429C111.101 34.7429 111.85 34.4139 112.49 34.0427C112.971 33.7636 114.386 32.4017 114.612 32C115.651 30.1529 115.858 29.4124 115.858 27.5429C115.859 26.0421 115.604 24.4383 115.34 24.2757C115.286 24.2424 115.242 24.0959 115.242 23.9501C115.242 23.8044 115.165 23.6212 115.07 23.5429C114.975 23.4646 114.898 23.3103 114.898 23.2C114.898 23.0897 114.821 22.9355 114.726 22.8572C114.631 22.7789 114.554 22.6676 114.554 22.6097C114.554 22.2676 113.159 20.742 112.413 20.2686C112.235 20.1552 112.063 20.0356 112.031 20.0027C111.898 19.8645 111.195 19.5427 111.019 19.5392C110.913 19.5373 110.727 19.4601 110.605 19.3678C110.482 19.275 110.139 19.2 109.838 19.2C109.539 19.2 109.175 19.1603 109.029 19.1118C108.883 19.0632 108.247 19.066 107.617 19.1179ZM132.156 19.5444C131.238 19.6517 130.09 19.9064 129.966 20.0304C129.919 20.0766 129.765 20.1143 129.623 20.1143C129.481 20.1143 129.219 20.1885 129.04 20.2792C128.862 20.3699 128.509 20.5395 128.257 20.6561C126.699 21.3765 125.538 22.5281 124.828 24.0572C124.653 24.4343 124.437 24.8885 124.348 25.0664C124.259 25.2444 124.185 25.4758 124.184 25.5807C124.184 25.6856 124.108 25.9772 124.017 26.2286C123.775 26.8987 123.801 27.7287 124.082 28.3068C124.213 28.5781 124.39 28.8 124.475 28.8C124.636 28.8 124.989 28.1943 124.989 27.9182C124.989 27.6892 125.347 26.5925 125.464 26.4629C125.518 26.4031 125.562 26.2423 125.562 26.1054C125.562 25.9686 125.64 25.7926 125.734 25.7143C125.829 25.636 125.906 25.4817 125.906 25.3715C125.906 25.2612 125.984 25.1069 126.078 25.0286C126.173 24.9503 126.25 24.8373 126.25 24.7774C126.25 24.5843 127.284 23.3219 127.707 22.9989C127.933 22.8267 128.214 22.5949 128.332 22.4839C128.65 22.1857 129.772 21.6489 130.493 21.4505C131.475 21.1803 133.172 20.9892 133.901 21.0667C135.347 21.2201 136.144 21.3584 136.263 21.4764C136.331 21.5444 136.48 21.6 136.595 21.6C136.784 21.6 137.005 21.6895 137.488 21.9609C137.582 22.0142 137.782 22.1102 137.932 22.1744C138.272 22.32 139.552 23.6111 139.552 23.8086C139.552 23.8887 139.612 24.0144 139.686 24.0878C140.049 24.4502 140.469 26.2365 140.469 27.4216C140.469 28.3749 140.296 29.4684 140.056 30.0325C139.968 30.2389 139.896 30.492 139.896 30.5949C139.896 30.7911 139.224 32.2443 139.088 32.3429C139.045 32.3743 138.971 32.524 138.923 32.6755C138.82 33.0035 136.29 35.5429 136.066 35.5429C135.98 35.5429 135.85 35.6153 135.776 35.7038C135.703 35.7923 135.477 35.9488 135.275 36.0517C135.073 36.1547 134.753 36.3371 134.564 36.4572C134.234 36.6668 133.723 36.9277 133.36 37.0728C133.265 37.1105 133.11 37.1845 133.016 37.2372C132.518 37.5142 132.063 37.7143 131.931 37.7143C131.849 37.7143 131.717 37.7932 131.636 37.8895C131.556 37.986 131.434 38.0454 131.364 38.0219C131.254 37.9843 130.782 38.1749 130.122 38.5235C130.012 38.5813 129.849 38.6286 129.758 38.6286C129.668 38.6286 129.422 38.7147 129.212 38.8199C129.002 38.9251 128.688 39.0823 128.515 39.1692C128.341 39.2561 128.2 39.2995 128.2 39.2655C128.2 39.2008 127.944 39.3179 126.405 40.088C125.117 40.7321 125.05 40.7729 124.074 41.5013C122.709 42.5205 121.567 43.7959 120.665 45.31C120.588 45.4381 120.495 45.62 120.458 45.7143C120.421 45.8086 120.316 46.0313 120.224 46.2093C120.133 46.3872 120.058 46.6285 120.058 46.7454C120.058 46.8623 120.011 46.987 119.953 47.0224C119.896 47.058 119.813 47.3053 119.768 47.572C119.724 47.8389 119.631 48.1271 119.562 48.2125C119.482 48.3115 119.434 49.0789 119.432 50.3268C119.428 51.9367 119.466 52.4079 119.644 52.9715C120.112 54.4552 120.893 55.7252 121.86 56.5761C122.107 56.7936 122.486 57.1257 122.703 57.3143C123.151 57.7048 125.398 58.8564 125.713 58.8568C125.828 58.8571 126.034 58.9176 126.172 58.9916C126.944 59.4059 130.492 59.4252 131.462 59.0204C133.837 58.0284 135.181 56.8915 136.856 54.4572C137.158 54.0172 137.478 53.5029 137.566 53.3143C137.654 53.1257 137.878 52.74 138.063 52.4572C138.249 52.1743 138.437 51.8657 138.48 51.7715C138.523 51.6772 138.795 51.2769 139.084 50.8821C139.615 50.1559 139.999 49.9252 140.284 50.1608C140.536 50.3687 140.729 51.247 140.656 51.8479C140.33 54.5192 140.338 55.9617 140.681 56.658C140.735 56.7675 140.872 57.0492 140.985 57.2839C141.274 57.8827 142.135 58.867 142.631 59.1661C143.299 59.5683 144.382 60.0695 144.941 60.2348C145.703 60.46 148.839 60.4405 149.585 60.2059C150.533 59.9077 151.387 59.4686 151.993 58.967C152.56 58.498 153.541 57.3967 153.541 57.2294C153.541 57.0868 153.335 57.1318 153.283 57.2857C153.205 57.5209 151.004 57.5524 150.547 57.3249C150.345 57.2248 150.047 57.1413 149.883 57.1392C149.719 57.1373 149.485 57.0601 149.363 56.9678C149.24 56.8756 149.057 56.8 148.956 56.8C148.79 56.8 148.207 56.2593 147.816 55.7427C147.424 55.2235 147.391 54.3758 147.49 47.3715C147.659 35.4967 147.568 32.0204 147.021 29.3715C146.822 28.4045 146.073 26.646 145.363 25.4745C144.625 24.259 142.345 22.0123 141.538 21.7065C141.392 21.6511 141.272 21.5529 141.272 21.4886C141.272 21.4241 141.172 21.3715 141.049 21.3715C140.927 21.3715 140.796 21.3214 140.758 21.2603C140.72 21.199 140.497 21.0649 140.264 20.9622C140.03 20.8593 139.658 20.6959 139.437 20.5989C139.216 20.5019 138.899 20.3532 138.731 20.2684C138.564 20.1837 138.296 20.1143 138.136 20.1143C137.976 20.1143 137.813 20.0629 137.774 20C137.735 19.9372 137.565 19.8852 137.395 19.8845C137.225 19.8838 136.843 19.8096 136.545 19.7195C135.886 19.5203 133.258 19.4155 132.156 19.5444ZM55.8841 36.7614C55.6009 37.0655 55.205 37.5158 55.0044 37.7622C54.8038 38.0085 54.3815 38.4971 54.066 38.8479C53.7506 39.1987 53.2902 39.7332 53.0431 40.0357C52.3728 40.8558 48.8357 43.8857 48.5485 43.8857C48.5048 43.8857 48.3 44.0143 48.0933 44.1715C47.8865 44.3286 47.6624 44.4572 47.5952 44.4572C47.5279 44.4572 47.4726 44.4957 47.4722 44.5429C47.4719 44.5901 47.1842 44.8343 46.8331 45.0857C45.7311 45.8747 44.8401 47.3696 44.8367 48.4357C44.836 48.6438 44.9634 49.0809 45.1199 49.4071C45.4438 50.0821 45.9521 50.4668 46.8223 50.6956C47.5515 50.8873 48.4333 50.7032 49.9382 50.0451C50.4997 49.7995 51.8494 48.7573 52.4036 48.1413C53.1907 47.2664 53.7796 46.542 53.7796 46.4486C53.7796 46.4023 53.8967 46.2053 54.0399 46.0108C54.183 45.8163 54.4182 45.4141 54.5625 45.1169C54.7069 44.8198 54.8736 44.5468 54.933 44.5102C54.9923 44.4736 55.0409 44.3502 55.0409 44.2358C55.0409 44.1215 55.1184 43.964 55.213 43.8857C55.3076 43.8075 55.385 43.6315 55.385 43.4947C55.385 43.3577 55.4281 43.1968 55.4807 43.1372C55.5333 43.0774 55.6556 42.7972 55.7522 42.5143C56.7423 39.6191 57.188 36.3581 56.6087 36.2481C56.4743 36.2227 56.2142 36.407 55.8841 36.7614ZM139.466 37.2096C139.261 37.3705 139.093 37.5456 139.093 37.5987C139.093 37.6517 138.857 37.9437 138.568 38.2476C138.279 38.5515 137.666 39.2629 137.205 39.8286C136.213 41.0446 134.639 42.5663 133.36 43.5461C133.076 43.7633 132.826 43.9801 132.805 44.0278C132.784 44.0753 132.72 44.1143 132.662 44.1143C132.576 44.1143 131.443 44.883 131.002 45.2415C130.935 45.296 130.754 45.4076 130.6 45.4895C130.187 45.7099 129.01 46.8543 128.724 47.3143C128.488 47.6929 128.287 48.2573 128.149 48.9291C128.005 49.6332 128.7 50.896 129.452 51.2965C129.834 51.4995 130.995 51.5629 131.582 51.4128C131.835 51.3484 132.181 51.2685 132.353 51.2355C132.524 51.2023 132.724 51.1036 132.797 51.0161C132.869 50.9287 133.003 50.8572 133.092 50.8572C133.376 50.8572 134.528 50.055 135.289 49.3281C135.915 48.7297 137.373 46.8925 137.373 46.7016C137.373 46.667 137.507 46.4436 137.67 46.2051C137.833 45.9665 138.117 45.4372 138.302 45.0286C138.486 44.62 138.714 44.1401 138.808 43.9622C138.902 43.7843 138.978 43.5441 138.978 43.4286C138.978 43.3131 139.051 43.0729 139.139 42.895C139.362 42.4451 139.552 41.8038 139.552 41.4987C139.552 41.3576 139.605 41.1437 139.669 41.0232C139.918 40.56 140.272 37.2752 140.097 37.0572C139.94 36.8623 139.893 36.8736 139.466 37.2096Z" fill="#298028"/>
<path d="M2.66066 75.6394V68.6869H3.92013V71.6301H7.1418V68.6869H8.40466V75.6394H7.1418V72.6859H3.92013V75.6394H2.66066ZM11.3996 75.6394V68.6869H15.9215V69.7426H12.6591V71.6301H15.6873V72.6859H12.6591V74.5836H15.9487V75.6394H11.3996ZM19.7244 75.6394H18.3801L20.8277 68.6869H22.3825L24.8336 75.6394H23.4892L21.6323 70.1127H21.578L19.7244 75.6394ZM19.7685 72.9134H23.4349V73.925H19.7685V72.9134ZM27.3745 75.6394V68.6869H28.634V74.5836H31.6961V75.6394H27.3745ZM33.2219 69.7426V68.6869H38.769V69.7426H36.6201V75.6394H35.3708V69.7426H33.2219ZM41.4635 75.6394V68.6869H42.723V71.6301H45.9447V68.6869H47.2075V75.6394H45.9447V72.6859H42.723V75.6394H41.4635ZM60.15 71.0327H58.8804C58.8441 70.8244 58.7774 70.64 58.6801 70.4793C58.5827 70.3164 58.4617 70.1783 58.3168 70.0651C58.172 69.952 58.0068 69.8671 57.8212 69.8105C57.6379 69.7517 57.4398 69.7223 57.2271 69.7223C56.8491 69.7223 56.5142 69.8173 56.2222 70.0074C55.9303 70.1953 55.7017 70.4714 55.5365 70.8358C55.3713 71.1979 55.2887 71.6403 55.2887 72.1631C55.2887 72.695 55.3713 73.1431 55.5365 73.5075C55.704 73.8696 55.9325 74.1434 56.2222 74.329C56.5142 74.5123 56.848 74.604 57.2237 74.604C57.4319 74.604 57.6265 74.5768 57.8076 74.5225C57.9909 74.4659 58.155 74.3833 58.2998 74.2747C58.447 74.1661 58.5703 74.0325 58.6699 73.8741C58.7717 73.7157 58.8419 73.5346 58.8804 73.3309L60.15 73.3377C60.1025 73.6682 59.9995 73.9782 59.8411 74.2679C59.6849 74.5576 59.4801 74.8133 59.2266 75.0351C58.9731 75.2547 58.6767 75.4267 58.3372 75.5511C57.9977 75.6734 57.6209 75.7345 57.2067 75.7345C56.5957 75.7345 56.0502 75.593 55.5704 75.3101C55.0906 75.0272 54.7127 74.6187 54.4366 74.0846C54.1605 73.5505 54.0224 72.91 54.0224 72.1631C54.0224 71.414 54.1616 70.7735 54.44 70.2417C54.7183 69.7076 55.0974 69.2991 55.5772 69.0162C56.057 68.7333 56.6002 68.5918 57.2067 68.5918C57.5937 68.5918 57.9536 68.6461 58.2863 68.7548C58.619 68.8634 58.9154 69.0229 59.1757 69.2334C59.436 69.4416 59.6498 69.6974 59.8173 70.0006C59.9871 70.3017 60.098 70.6457 60.15 71.0327ZM69.141 72.1631C69.141 72.9122 69.0007 73.5539 68.7201 74.088C68.4417 74.6198 68.0615 75.0272 67.5794 75.3101C67.0996 75.593 66.5553 75.7345 65.9465 75.7345C65.3377 75.7345 64.7923 75.593 64.3102 75.3101C63.8304 75.0249 63.4502 74.6164 63.1696 74.0846C62.8912 73.5505 62.752 72.91 62.752 72.1631C62.752 71.414 62.8912 70.7735 63.1696 70.2417C63.4502 69.7076 63.8304 69.2991 64.3102 69.0162C64.7923 68.7333 65.3377 68.5918 65.9465 68.5918C66.5553 68.5918 67.0996 68.7333 67.5794 69.0162C68.0615 69.2991 68.4417 69.7076 68.7201 70.2417C69.0007 70.7735 69.141 71.414 69.141 72.1631ZM67.8748 72.1631C67.8748 71.6358 67.7922 71.1911 67.6269 70.829C67.464 70.4646 67.2377 70.1896 66.948 70.004C66.6583 69.8162 66.3245 69.7223 65.9465 69.7223C65.5686 69.7223 65.2347 69.8162 64.9451 70.004C64.6554 70.1896 64.4279 70.4646 64.2627 70.829C64.0998 71.1911 64.0183 71.6358 64.0183 72.1631C64.0183 72.6905 64.0998 73.1363 64.2627 73.5007C64.4279 73.8628 64.6554 74.1378 64.9451 74.3256C65.2347 74.5112 65.5686 74.604 65.9465 74.604C66.3245 74.604 66.6583 74.5112 66.948 74.3256C67.2377 74.1378 67.464 73.8628 67.6269 73.5007C67.7922 73.1363 67.8748 72.6905 67.8748 72.1631ZM77.6704 68.6869V75.6394H76.5501L73.2741 70.9037H73.2164V75.6394H71.9569V68.6869H73.084L76.3566 73.426H76.4177V68.6869H77.6704ZM84.4463 70.5981C84.4146 70.3017 84.2811 70.0708 84.0457 69.9056C83.8126 69.7404 83.5093 69.6578 83.1359 69.6578C82.8734 69.6578 82.6482 69.6974 82.4603 69.7766C82.2725 69.8558 82.1288 69.9633 82.0292 70.0991C81.9296 70.2349 81.8787 70.3899 81.8764 70.5642C81.8764 70.709 81.9092 70.8346 81.9749 70.941C82.0428 71.0474 82.1344 71.1379 82.2498 71.2126C82.3653 71.285 82.4931 71.3461 82.6335 71.3959C82.7738 71.4457 82.9152 71.4876 83.0578 71.5215L83.7096 71.6845C83.9721 71.7456 84.2245 71.8282 84.4666 71.9323C84.7111 72.0364 84.9295 72.1677 85.1218 72.3261C85.3165 72.4845 85.4704 72.6757 85.5835 72.8998C85.6967 73.1239 85.7533 73.3864 85.7533 73.6874C85.7533 74.0948 85.6492 74.4535 85.441 74.7635C85.2327 75.0713 84.9317 75.3124 84.5379 75.4866C84.1464 75.6586 83.6723 75.7446 83.1155 75.7446C82.5746 75.7446 82.105 75.6609 81.7067 75.4934C81.3106 75.326 81.0006 75.0815 80.7765 74.7602C80.5547 74.4388 80.4348 74.0472 80.4167 73.5856H81.6558C81.6739 73.8277 81.7485 74.0291 81.8798 74.1898C82.0111 74.3505 82.1819 74.4705 82.3924 74.5497C82.6052 74.6289 82.8428 74.6685 83.1053 74.6685C83.3792 74.6685 83.6191 74.6278 83.825 74.5463C84.0332 74.4625 84.1962 74.3471 84.3139 74.2C84.4316 74.0506 84.4915 73.8764 84.4938 73.6772C84.4915 73.4962 84.4384 73.3468 84.3342 73.2291C84.2301 73.1091 84.0842 73.0096 83.8963 72.9304C83.7107 72.8489 83.4935 72.7765 83.2445 72.7131L82.4535 72.5094C81.8809 72.3623 81.4283 72.1394 81.0956 71.8406C80.7652 71.5396 80.6 71.1402 80.6 70.6423C80.6 70.2326 80.7109 69.8739 80.9327 69.5661C81.1567 69.2583 81.4611 69.0195 81.8459 68.8498C82.2306 68.6778 82.6663 68.5918 83.1529 68.5918C83.6462 68.5918 84.0785 68.6778 84.4497 68.8498C84.8231 69.0195 85.1162 69.2561 85.3289 69.5593C85.5417 69.8603 85.6514 70.2066 85.6582 70.5981H84.4463ZM92.8839 68.6869H94.1434V73.2291C94.1434 73.727 94.0257 74.1649 93.7904 74.5429C93.5572 74.9208 93.2291 75.2162 92.8059 75.4289C92.3826 75.6394 91.8881 75.7446 91.3223 75.7446C90.7543 75.7446 90.2586 75.6394 89.8354 75.4289C89.4122 75.2162 89.084 74.9208 88.8509 74.5429C88.6178 74.1649 88.5013 73.727 88.5013 73.2291V68.6869H89.7607V73.1239C89.7607 73.4135 89.8241 73.6716 89.9508 73.8979C90.0798 74.1242 90.2609 74.3019 90.494 74.4309C90.7271 74.5576 91.0032 74.621 91.3223 74.621C91.6414 74.621 91.9176 74.5576 92.1507 74.4309C92.386 74.3019 92.5671 74.1242 92.6938 73.8979C92.8206 73.6716 92.8839 73.4135 92.8839 73.1239V68.6869ZM97.1375 75.6394V68.6869H98.397V74.5836H101.459V75.6394H97.1375ZM102.985 69.7426V68.6869H108.532V69.7426H106.383V75.6394H105.134V69.7426H102.985ZM111.279 75.6394H109.935L112.383 68.6869H113.937L116.388 75.6394H115.044L113.187 70.1127H113.133L111.279 75.6394ZM111.323 72.9134H114.99V73.925H111.323V72.9134ZM117.784 69.7426V68.6869H123.331V69.7426H121.182V75.6394H119.932V69.7426H117.784ZM127.285 68.6869V75.6394H126.025V68.6869H127.285ZM136.486 72.1631C136.486 72.9122 136.346 73.5539 136.065 74.088C135.787 74.6198 135.407 75.0272 134.925 75.3101C134.445 75.593 133.9 75.7345 133.292 75.7345C132.683 75.7345 132.137 75.593 131.655 75.3101C131.176 75.0249 130.795 74.6164 130.515 74.0846C130.236 73.5505 130.097 72.91 130.097 72.1631C130.097 71.414 130.236 70.7735 130.515 70.2417C130.795 69.7076 131.176 69.2991 131.655 69.0162C132.137 68.7333 132.683 68.5918 133.292 68.5918C133.9 68.5918 134.445 68.7333 134.925 69.0162C135.407 69.2991 135.787 69.7076 136.065 70.2417C136.346 70.7735 136.486 71.414 136.486 72.1631ZM135.22 72.1631C135.22 71.6358 135.137 71.1911 134.972 70.829C134.809 70.4646 134.583 70.1896 134.293 70.004C134.003 69.8162 133.67 69.7223 133.292 69.7223C132.914 69.7223 132.58 69.8162 132.29 70.004C132 70.1896 131.773 70.4646 131.608 70.829C131.445 71.1911 131.363 71.6358 131.363 72.1631C131.363 72.6905 131.445 73.1363 131.608 73.5007C131.773 73.8628 132 74.1378 132.29 74.3256C132.58 74.5112 132.914 74.604 133.292 74.604C133.67 74.604 134.003 74.5112 134.293 74.3256C134.583 74.1378 134.809 73.8628 134.972 73.5007C135.137 73.1363 135.22 72.6905 135.22 72.1631ZM145.015 68.6869V75.6394H143.895L140.619 70.9037H140.561V75.6394H139.302V68.6869H140.429L143.702 73.426H143.763V68.6869H145.015ZM151.791 70.5981C151.76 70.3017 151.626 70.0708 151.391 69.9056C151.158 69.7404 150.854 69.6578 150.481 69.6578C150.218 69.6578 149.993 69.6974 149.805 69.7766C149.618 69.8558 149.474 69.9633 149.374 70.0991C149.275 70.2349 149.224 70.3899 149.222 70.5642C149.222 70.709 149.254 70.8346 149.32 70.941C149.388 71.0474 149.48 71.1379 149.595 71.2126C149.71 71.285 149.838 71.3461 149.979 71.3959C150.119 71.4457 150.26 71.4876 150.403 71.5215L151.055 71.6845C151.317 71.7456 151.57 71.8282 151.812 71.9323C152.056 72.0364 152.275 72.1677 152.467 72.3261C152.662 72.4845 152.815 72.6757 152.929 72.8998C153.042 73.1239 153.098 73.3864 153.098 73.6874C153.098 74.0948 152.994 74.4535 152.786 74.7635C152.578 75.0713 152.277 75.3124 151.883 75.4866C151.491 75.6586 151.017 75.7446 150.461 75.7446C149.92 75.7446 149.45 75.6609 149.052 75.4934C148.656 75.326 148.346 75.0815 148.122 74.7602C147.9 74.4388 147.78 74.0472 147.762 73.5856H149.001C149.019 73.8277 149.094 74.0291 149.225 74.1898C149.356 74.3505 149.527 74.4705 149.738 74.5497C149.95 74.6289 150.188 74.6685 150.45 74.6685C150.724 74.6685 150.964 74.6278 151.17 74.5463C151.378 74.4625 151.541 74.3471 151.659 74.2C151.777 74.0506 151.837 73.8764 151.839 73.6772C151.837 73.4962 151.783 73.3468 151.679 73.2291C151.575 73.1091 151.429 73.0096 151.241 72.9304C151.056 72.8489 150.839 72.7765 150.59 72.7131L149.799 72.5094C149.226 72.3623 148.773 72.1394 148.441 71.8406C148.11 71.5396 147.945 71.1402 147.945 70.6423C147.945 70.2326 148.056 69.8739 148.278 69.5661C148.502 69.2583 148.806 69.0195 149.191 68.8498C149.576 68.6778 150.011 68.5918 150.498 68.5918C150.991 68.5918 151.424 68.6778 151.795 68.8498C152.168 69.0195 152.461 69.2561 152.674 69.5593C152.887 69.8603 152.997 70.2066 153.003 70.5981H151.791Z" fill="#1A3E1F"/>
</g>
<defs>
<clipPath id="clip0_222_37">
<rect width="154" height="76" fill="white"/>
</clipPath>
</defs>
</svg>
